<?xml version="1.0" standalone="no"?>
<!DOCTYPE svg PUBLIC "-//W3C//DTD SVG 1.1//EN" "http://www.w3.org/Graphics/SVG/1.1/DTD/svg11.dtd" >
<svg>
<metadata>
Created by FontForge 20090914 at Fri Mar  9 07:59:49 2018
 By www-data
&#194;&#169; 1988, 1990, 1993, 2002 Adobe Systems Incorporated. All rights reserved.
</metadata>
<defs>
<font id="HelveticaNeueLTStd-Md" horiz-adv-x="1138" >
  <font-face 
    font-family="Helvetica Neue LT Std"
    font-weight="500"
    font-stretch="normal"
    units-per-em="2048"
    panose-1="2 11 6 4 2 2 2 2 2 4"
    ascent="1462"
    descent="-586"
    x-height="1059"
    cap-height="1462"
    bbox="-115 -453 2154 1950"
    underline-thickness="102"
    underline-position="-102"
    unicode-range="U+0020-U+FB04"
  />
<missing-glyph horiz-adv-x="1024" 
d="M0 0v1434h1024v-1434h-1024zM102 195l349 522l-349 522v-1044zM164 102h696l-348 523zM164 1331l348 -522l348 522h-696zM573 717l349 -522v1044z" />
    <glyph glyph-name=".notdef" horiz-adv-x="1024" 
d="M0 0v1434h1024v-1434h-1024zM102 195l349 522l-349 522v-1044zM164 102h696l-348 523zM164 1331l348 -522l348 522h-696zM573 717l349 -522v1044z" />
    <glyph glyph-name="space" unicode=" " horiz-adv-x="569" 
 />
    <glyph glyph-name="exclam" unicode="!" horiz-adv-x="569" 
d="M147 0v256h275v-256h-275zM158 1040v422h256v-422l-68 -632h-121z" />
    <glyph glyph-name="quotedbl" unicode="&#x22;" horiz-adv-x="909" 
d="M170 885v577h209v-577h-209zM530 885v577h209v-577h-209z" />
    <glyph glyph-name="numbersign" unicode="#" 
d="M70 430v154h215l37 266h-193v154h213l59 430h166l-61 -430h227l60 430h165l-61 -430h176v-154h-196l-37 -266h174v-154h-195l-61 -430h-164l59 430h-225l-61 -430h-164l59 430h-192zM449 584h227l37 266h-228z" />
    <glyph glyph-name="dollar" unicode="$" 
d="M35 444h232.997c-2.66699 -191.333 84.666 -289.333 261.999 -294v495c-53.333 15.333 -98.666 29.5 -135.999 42.5s-78.166 31.667 -122.499 56s-80.166 51.5 -107.499 81.5s-50.5 68.333 -69.5 115s-28.5 98.667 -28.5 156c0 124 45.333 221.833 136 293.5
s200 107.5 328 107.5v160h88v-160c130 0 237.333 -34.167 322 -102.5s127 -167.166 127 -296.499h-233c-6.66699 143.333 -78.667 215 -216 215v-432c57.333 -15.333 106.5 -30.166 147.5 -44.499s84.167 -33.833 129.5 -58.5s82.333 -52.334 111 -83.001
s52.167 -68.834 70.5 -114.501s27.5 -97.167 27.5 -154.5c0 -146 -44.667 -257.667 -134 -335s-206.666 -119.333 -351.999 -126v-160h-88v160c-151.333 2.66699 -272 46 -362 130s-134.333 200.333 -133 349zM298.997 1112c0 -60 20.832 -105.333 62.499 -136
s97.834 -55 168.501 -73v410c-154 0 -231 -67 -231 -201zM617.996 150c168 12 251.999 93 251.999 243c0 69.333 -22.167 120.5 -66.5 153.5s-106.166 59.833 -185.499 80.5v-477z" />
    <glyph glyph-name="percent" unicode="%" horiz-adv-x="2048" 
d="M168 1055c0 118.667 28.667 216.167 86 292.5s142.666 114.5 255.999 114.5s198.666 -38.167 255.999 -114.5s86 -173.833 86 -292.5c0 -121.333 -27.667 -219.666 -83 -294.999s-141.666 -113 -258.999 -113s-203.666 37.667 -258.999 113s-83 173.666 -83 294.999z
M352 1054.5c0 -183 52 -274.5 156 -274.5c54.667 0 95 25.333 121 76s39 117 39 199c0 182.667 -53.333 274 -160 274c-104 0 -156 -91.5 -156 -274.5zM532 -49l797 1532h156l-793 -1532h-160zM1196 379c0 118.667 28.667 216.167 86 292.5s142.666 114.5 255.999 114.5
s198.666 -38.167 255.999 -114.5s86 -173.833 86 -292.5c0 -121.333 -27.667 -219.666 -83 -294.999s-141.666 -113 -258.999 -113s-203.666 37.667 -258.999 113s-83 173.666 -83 294.999zM1380 378.5c0 -183 52 -274.5 156 -274.5c54.667 0 95 25.333 121 76
s39 117 39 199c0 182.667 -53.333 274 -160 274c-104 0 -156 -91.5 -156 -274.5z" />
    <glyph glyph-name="ampersand" unicode="&#x26;" horiz-adv-x="1327" 
d="M66 406c0 168 111.668 309.005 335.001 423.005c-31.333 40.667 -55.833 74.167 -73.5 100.5s-34.334 59.666 -50.001 99.999s-23.5 80.166 -23.5 119.499c0 104 34.5 188 103.5 252s154 96 255 96s187 -30.667 258 -92s106.5 -147.333 106.5 -258
c0 -152.667 -88 -276.334 -264 -371.001l227 -274c22 61.333 37 126.666 45 195.999h205c-16.667 -144.667 -55 -264 -115 -358l281 -340h-287l-133 164c-105.333 -128.667 -242 -193 -410 -193c-136.667 0 -247.5 38.667 -332.5 116s-127.5 183.666 -127.5 318.999z
M299.001 401.005c0 -76.667 21.8291 -136.67 65.4961 -180.003s100.5 -65 170.5 -65c18 0 35.333 1 52 3s32.334 5.66699 47.001 11l38 14c10.667 4 21.834 10.833 33.501 20.5s20.834 16.834 27.501 21.501s15 13 25 25l19 23c3.33301 4 9.5 11.833 18.5 23.5
s14.167 18.834 15.5 21.501l-287 357c-5.33301 -4 -23.333 -14.167 -54 -30.5s-52.167 -29.666 -64.5 -39.999s-28.666 -25.833 -48.999 -46.5s-35 -44 -44 -70s-13.5 -55.333 -13.5 -88zM462.997 1161c0 -22 5.16699 -45.1689 15.5 -69.502s20.166 -44 29.499 -59
s24.666 -35.5 45.999 -61.5s35.333 -43.667 42 -53c36.667 24.667 65.334 45.834 86.001 63.501s40.167 41.834 58.5 72.501s27.5 64.334 27.5 101.001c0 49.333 -13.667 89.666 -41 120.999s-63.666 47 -108.999 47c-44 0 -80.833 -15 -110.5 -45s-44.5 -69 -44.5 -117z
" />
    <glyph glyph-name="quotesingle" unicode="'" horiz-adv-x="569" 
d="M180 885v577h209v-577h-209z" />
    <glyph glyph-name="parenleft" unicode="(" horiz-adv-x="569" 
d="M100 553c0 326 98.333 640.67 295 944.003h191c-168 -300.667 -252 -615.334 -252 -944.001c0 -345.333 84 -660 252 -944h-191c-92.667 147.333 -165 296.166 -217 446.499s-78 316.166 -78 497.499z" />
    <glyph glyph-name="parenright" unicode=")" horiz-adv-x="569" 
d="M-16 -391c168 297.333 252 611.334 252 942.001c0 345.333 -84 660.666 -252 945.999h190c92.667 -148.667 165 -298.5 217 -449.5s78 -316.5 78 -496.5c0 -328 -98.333 -642 -295 -942h-190z" />
    <glyph glyph-name="asterisk" unicode="*" horiz-adv-x="757" 
d="M39 1171l45 134l225 -88v245h140v-245l223 88l49 -134l-234 -77l144 -193l-109 -80l-145 201l-139 -201l-115 80l143 193z" />
    <glyph glyph-name="plus" unicode="+" horiz-adv-x="1228" 
d="M98 414v209h412v413h209v-413h411v-209h-411v-414h-209v414h-412z" />
    <glyph glyph-name="comma" unicode="," horiz-adv-x="569" 
d="M141 0v275.998h285v-276c-1.33301 -83.333 -27.333 -154 -78 -212s-116.667 -95.333 -198 -112v125c44 10.667 77.5 34.834 100.5 72.501s33.833 79.834 32.5 126.501h-142z" />
    <glyph glyph-name="hyphen" unicode="-" horiz-adv-x="796" 
d="M100 446v222h596v-222h-596z" />
    <glyph glyph-name="period" unicode="." horiz-adv-x="569" 
d="M141 0v276h285v-276h-285z" />
    <glyph glyph-name="slash" unicode="/" horiz-adv-x="720" 
d="M-45 -35l588 1532h223l-588 -1532h-223z" />
    <glyph glyph-name="zero" unicode="0" 
d="M74 717c0 91.333 6.83301 176.666 20.5 255.999s37.5 157.833 71.5 235.5s85.167 139.334 153.5 185.001s151.666 68.5 249.999 68.5s181.666 -22.833 249.999 -68.5s119.5 -107.334 153.5 -185.001s57.833 -156.167 71.5 -235.5s20.5 -164.666 20.5 -255.999
s-6.83301 -176.666 -20.5 -255.999s-37.5 -157.833 -71.5 -235.5s-85.167 -139.5 -153.5 -185.5s-151.666 -69 -249.999 -69s-181.666 23 -249.999 69s-119.5 107.833 -153.5 185.5s-57.833 156.167 -71.5 235.5s-20.5 164.666 -20.5 255.999zM307 717
c0 -367.333 87.333 -551 262 -551s262 183.667 262 551s-87.333 551 -262 551s-262 -183.667 -262 -551z" />
    <glyph glyph-name="one" unicode="1" 
d="M109 1012l-0.000976562 183.998c106.667 -1.33301 198.834 17.834 276.501 57.501s124.5 99.834 140.5 180.501h191v-1434h-256v1012h-352z" />
    <glyph glyph-name="two" unicode="2" 
d="M80 0c1.33301 222.667 106.331 403.665 314.998 542.998c22 16.667 59.667 42.667 113 78s94 63.5 122 84.5s59.667 48.667 95 83s60.833 69.833 76.5 106.5s24.167 76.334 25.5 119.001c1.33301 65.333 -16 124 -52 176s-99 78 -189 78
c-157.333 0 -239.333 -119.667 -246 -359h-234c0 164 43.5 297.167 130.5 399.5s208.167 153.5 363.5 153.5c83.333 0 156.333 -14 219 -42s110.834 -64.5 144.501 -109.5s58.334 -91.667 74.001 -140s23.5 -97.833 23.5 -148.5c0 -104 -28.333 -193.167 -85 -267.5
s-135 -146.166 -235 -215.499l-119 -79c-60 -39.333 -101.5 -67.833 -124.5 -85.5s-49.167 -42.167 -78.5 -73.5s-49 -62 -59 -92h699v-209h-979z" />
    <glyph glyph-name="three" unicode="3" 
d="M63 471l233.998 -0.000976562c-2.66699 -90 19.5 -163.333 66.5 -220s114.833 -85 203.5 -85c80.667 0 146.667 22.833 198 68.5s77 108.167 77 187.5c0 44 -7.16699 81.333 -21.5 112s-33.166 54.834 -56.499 72.501s-52 31.334 -86 41.001s-67.5 15.5 -100.5 17.5
s-69.833 2.33301 -110.5 1v174c88.667 -4 163.667 12 225 48s92 95 92 177c0 60 -20.833 108.833 -62.5 146.5s-95.167 56.5 -160.5 56.5c-76.667 0 -136.167 -29 -178.5 -87s-61.833 -126.667 -58.5 -206h-234c6.66699 143.333 52.334 260.333 137.001 351
s197.334 136 338.001 136c121.333 0 227.166 -33.667 317.499 -101s135.5 -161.333 135.5 -282c0 -157.333 -67.667 -259.666 -203 -306.999v-4c80.667 -16.667 144.167 -57.334 190.5 -122.001s69.5 -143.334 69.5 -236.001c0 -131.333 -49.167 -237.333 -147.5 -318
s-218.5 -121 -360.5 -121c-161.333 0 -285 44.833 -371 134.5s-130.333 211.5 -133 365.5z" />
    <glyph glyph-name="four" unicode="4" 
d="M49 340v231l615 863h221v-910h184v-184h-184v-340h-221v340h-615zM229 524h435v631h-5z" />
    <glyph glyph-name="five" unicode="5" 
d="M72 408l233.001 0.00195312c6.66699 -76.667 33.334 -136.167 80.001 -178.5s108 -63.5 184 -63.5c92.667 0 160.334 28.667 203.001 86s64 133.666 64 228.999c0 84.667 -23.333 155.667 -70 213s-114.334 86 -203.001 86c-121.333 0 -198.333 -43.667 -231 -131h-234
l154 785h741v-209h-567l-74 -365l4 -4c65.333 72.667 153.666 109 264.999 109c139.333 0 248.833 -44.833 328.5 -134.5s119.5 -204.834 119.5 -345.501c0 -60 -9.5 -119.333 -28.5 -178s-47.667 -113.5 -86 -164.5s-90.333 -92.333 -156 -124
s-140.834 -47.5 -225.501 -47.5c-143.333 0 -261.333 38 -354 114s-141.667 183.667 -147 323z" />
    <glyph glyph-name="six" unicode="6" 
d="M70 721c0 91.333 9.50195 178.666 28.502 261.999s48.333 161.833 88 235.5s96 132.667 169 177s157.833 66.5 254.5 66.5c116 0 215.667 -36.5 299 -109.5s127.666 -166.833 132.999 -281.5h-233c-5.33301 58.667 -26.5 106.167 -63.5 142.5s-85.5 54.5 -145.5 54.5
c-40.667 0 -76.834 -7.16699 -108.501 -21.5s-57.667 -36.166 -78 -65.499s-37.333 -58.333 -51 -87s-24.667 -64.5 -33 -107.5s-14.166 -78.5 -17.499 -106.5s-6.33301 -62.667 -9 -104l4 -4c31.333 54.667 74.333 96.667 129 126s114.667 44 180 44
c139.333 0 249.666 -45 330.999 -135s122 -205.333 122 -346s-44 -257.5 -132 -350.5s-203 -139.5 -345 -139.5c-82 0 -154 13 -216 39s-112.167 60.833 -150.5 104.5s-69.5 98 -93.5 163s-40.333 133 -49 204s-13 150.833 -13 239.5zM326.002 465
c0 -83.333 22.834 -154 68.501 -212s108.834 -87 189.501 -87c79.333 0 141.166 29.333 185.499 88s66.5 129 66.5 211s-21.833 151.333 -65.5 208s-105.834 85 -186.501 85c-82 0 -145.5 -28 -190.5 -84s-67.5 -125.667 -67.5 -209z" />
    <glyph glyph-name="seven" unicode="7" 
d="M72 1225v209.001h981v-195c-158.667 -178.667 -283 -367.667 -373 -567s-144 -423.333 -162 -672h-256c15.333 217.333 72.833 432.166 172.5 644.499s226.5 405.833 380.5 580.5h-743z" />
    <glyph glyph-name="eight" unicode="8" 
d="M63 422c0 88.667 23.667 164 71 226s111.333 103.333 192 124v4c-135.333 52 -203 150.333 -203 295c0 122.667 38.833 218.5 116.5 287.5s187.5 103.5 329.5 103.5s252 -34.5 330 -103.5s117 -164.833 117 -287.5c0 -144.667 -67.667 -243 -203 -295v-4
c80.667 -20.667 144.5 -62 191.5 -124s70.5 -137.333 70.5 -226c0 -138 -47 -247.667 -141 -329s-215.5 -122 -364.5 -122s-270.667 40.667 -365 122s-141.5 191 -141.5 329zM297 422c0 -82 25.667 -146.833 77 -194.5s116.5 -71.5 195.5 -71.5s144.167 23.833 195.5 71.5
s77 112.5 77 194.5c0 78 -25.667 139.5 -77 184.5s-116.5 67.5 -195.5 67.5s-144.167 -22.5 -195.5 -67.5s-77 -106.5 -77 -184.5zM344 1059c0 -65.333 20.833 -116.833 62.5 -154.5s96 -56.5 163 -56.5s121.333 18.833 163 56.5s62.5 89.167 62.5 154.5
c0 68 -21.167 121.5 -63.5 160.5s-96.333 58.5 -162 58.5s-119.667 -19.5 -162 -58.5s-63.5 -92.5 -63.5 -160.5z" />
    <glyph glyph-name="nine" unicode="9" 
d="M70 973c0 143.333 43.999 260.668 131.999 352.001s208.333 137 361 137c79.333 0 148.666 -13 207.999 -39s107.833 -60.833 145.5 -104.5s68 -97.834 91 -162.501s39 -132.5 48 -203.5s13.5 -150.833 13.5 -239.5c0 -91.333 -9.5 -178.666 -28.5 -261.999
s-48.333 -162 -88 -236s-96 -133.167 -169 -177.5s-158.167 -66.5 -255.5 -66.5c-116 0 -215.667 36.5 -299 109.5s-127.666 166.833 -132.999 281.5h234c5.33301 -58.667 26.5 -106 63.5 -142s85.5 -54 145.5 -54c40.667 0 76.667 7.16699 108 21.5
s57.333 36.166 78 65.499s37.834 58.333 51.501 87s24.5 64.5 32.5 107.5s13.667 78.5 17 106.5s6.66602 62.333 9.99902 103l-5 5c-30 -54.667 -72.167 -97.167 -126.5 -127.5s-115.166 -45.5 -182.499 -45.5c-135.333 0 -244.5 44.167 -327.5 132.5
s-124.5 205.5 -124.5 351.5zM302.999 975.002c0 -84.667 21.5 -156 64.5 -214s104.833 -87 185.5 -87c83.333 0 147.5 29 192.5 87s67.5 129.333 67.5 214c0 82 -22.5 151.333 -67.5 208s-109.167 85 -192.5 85c-80.667 0 -142.5 -28 -185.5 -84s-64.5 -125.667 -64.5 -209z
" />
    <glyph glyph-name="colon" unicode=":" horiz-adv-x="569" 
d="M141 0v276h285v-276h-285zM141 760v276h285v-276h-285z" />
    <glyph glyph-name="semicolon" unicode=";" horiz-adv-x="569" 
d="M141 0v275.998h285v-276c-1.33301 -83.333 -27.333 -154 -78 -212s-116.667 -95.333 -198 -112v125c44 10.667 77.5 34.834 100.5 72.501s33.833 79.834 32.5 126.501h-142zM141 759.998v276h285v-276h-285z" />
    <glyph glyph-name="less" unicode="&#x3c;" horiz-adv-x="1228" 
d="M94 444v148l1041 461v-209l-766 -326l766 -325v-209z" />
    <glyph glyph-name="equal" unicode="=" horiz-adv-x="1228" 
d="M98 207v209h1032v-209h-1032zM98 621v208h1032v-208h-1032z" />
    <glyph glyph-name="greater" unicode="&#x3e;" horiz-adv-x="1228" 
d="M94 -16v209l766 325l-766 326v209l1041 -461v-148z" />
    <glyph glyph-name="question" unicode="?" 
d="M100 997c-1.33301 151.333 42.833 272.501 132.5 363.501s209.5 136.5 359.5 136.5c130 0 236.833 -36.833 320.5 -110.5s125.5 -174.834 125.5 -303.501c0 -46.667 -4.33301 -87.334 -13 -122.001s-23.667 -66 -45 -94s-39.166 -49.167 -53.499 -63.5
s-37.166 -34.5 -68.499 -60.5c-45.333 -38 -77.833 -67.167 -97.5 -87.5s-38.334 -53.166 -56.001 -98.499s-26.5 -98.666 -26.5 -159.999h-221c0 113.333 11.833 198.333 35.5 255s64.834 110.334 123.501 161.001c5.33301 5.33301 16 14.666 32 27.999l32 26
c5.33301 4.66699 14.166 13.167 26.499 25.5s21.166 22 26.499 29s11.833 17 19.5 30s13.167 25 16.5 36s6.33301 24.333 9 40s4 31.5 4 47.5c0 75.333 -21.833 132.166 -65.5 170.499s-88.5 57.5 -134.5 57.5c-82 0 -143.833 -27 -185.5 -81s-62.5 -129 -62.5 -225h-234z
M425.999 0.000976562v256h274v-256h-274z" />
    <glyph glyph-name="at" unicode="@" horiz-adv-x="1638" 
d="M100 758c0 204.667 74.168 378.996 222.501 522.996s324.833 216 529.5 216c187.333 0 348.5 -57 483.5 -171s202.5 -257 202.5 -429c0 -96.667 -17 -185.667 -51 -267s-77 -145.833 -129 -193.5s-104.667 -84.5 -158 -110.5s-101.666 -39 -144.999 -39
c-34 0 -62.333 10.167 -85 30.5s-34.667 49.833 -36 88.5h-4c-69.333 -78 -146 -117 -230 -117c-84.667 0 -155.667 31.333 -213 94s-86 138.334 -86 227.001c0 136.667 42.667 259.334 128 368.001s192.333 163 321 163c105.333 0 181.666 -49.333 228.999 -148l37 117h144
l-148 -539c-30 -94 -23 -141 21 -141c65.333 0 126 43.667 182 131s84 191 84 311c0 148.667 -52.667 267.834 -158 357.501s-235 134.5 -389 134.5c-172 0 -313 -59 -423 -177s-165 -263.667 -165 -437c0 -196.667 57 -354.5 171 -473.5s259 -178.5 435 -178.5
c88.667 0 173.667 17.833 255 53.5s150 85.5 206 149.5h144c-65.333 -105.333 -152.333 -187.666 -261 -246.999s-226 -89 -352 -89c-214.667 0 -395.334 74.5 -542.001 223.5s-220 338.833 -220 569.5zM575.001 628.996c0 -54.667 15.167 -99.5 45.5 -134.5
s69.833 -52.5 118.5 -52.5c76.667 0 142.667 40.333 198 121s83 162 83 244c0 48 -16 90 -48 126s-70 54 -114 54c-79.333 0 -146.333 -38.5 -201 -115.5s-82 -157.833 -82 -242.5z" />
    <glyph glyph-name="A" unicode="A" horiz-adv-x="1366" 
d="M-14 0l561 1462h272l563 -1462h-274l-137 387h-584l-137 -387h-264zM457 582h446l-219 628h-6z" />
    <glyph glyph-name="B" unicode="B" horiz-adv-x="1441" 
d="M156 0v1462h710c135.333 0 241.5 -30.667 318.5 -92s115.5 -151.333 115.5 -270c0 -147.333 -69.333 -251.333 -208 -312v-4c88.667 -19.333 156.5 -62 203.5 -128s70.5 -148.667 70.5 -248c0 -121.333 -44.667 -219.666 -134 -294.999s-224.333 -113 -405 -113h-671z
M412 208.999l452 0.000976562c78 0 138.5 20.167 181.5 60.5s64.5 97.166 64.5 170.499c0 70.667 -21.5 126 -64.5 166s-103.5 60 -181.5 60h-452v-457zM412 850h417c62.667 0 114.167 17.667 154.5 53s60.5 85.333 60.5 150c0 70.667 -17.667 121.667 -53 153
s-89.333 47 -162 47h-417v-403z" />
    <glyph glyph-name="C" unicode="C" horiz-adv-x="1478" 
d="M78 731.5c0 215.667 63.501 397.166 190.501 544.499s296.833 221 509.5 221c169.333 -1.33301 311.333 -46.333 426 -135s179.667 -210.334 195 -365.001h-256c-49.333 194 -171 291 -365 291c-146 0 -256.5 -54.167 -331.5 -162.5s-112.5 -239.666 -112.5 -393.999
s37.5 -285.833 112.5 -394.5s185.5 -163 331.5 -163c109.333 0 196.166 35.833 260.499 107.5s101.833 163.5 112.5 275.5h250c-10.667 -176 -73.167 -318.667 -187.5 -428s-259.5 -164 -435.5 -164c-212.667 0 -382.5 73.833 -509.5 221.5s-190.5 329.334 -190.5 545.001z
" />
    <glyph glyph-name="D" unicode="D" horiz-adv-x="1478" 
d="M156 0l-0.000976562 1462h606c214.667 0 375.834 -67.833 483.501 -203.5s161.5 -311.334 161.5 -527.001s-54 -391.5 -162 -527.5s-269 -204 -483 -204h-606zM411.999 209.001l252 -0.000976562c96.667 0 178.167 13 244.5 39s116.5 63.833 150.5 113.5
s57.833 103.834 71.5 162.501s20.5 127.667 20.5 207s-6.83301 148.333 -20.5 207s-37.5 113 -71.5 163s-84.167 87.833 -150.5 113.5s-147.833 38.5 -244.5 38.5h-252v-1044z" />
    <glyph glyph-name="E" unicode="E" horiz-adv-x="1290" 
d="M156 0v1462h1052v-221h-796v-383h737v-209h-737v-428h811v-221h-1067z" />
    <glyph glyph-name="F" unicode="F" horiz-adv-x="1214" 
d="M156 0v1462h1009v-221h-753v-383h661v-209h-661v-649h-256z" />
    <glyph glyph-name="G" unicode="G" horiz-adv-x="1554" 
d="M88 731.5c0 215.667 63.501 397.165 190.501 544.498s296.833 221 509.5 221c166.667 0 308 -43.333 424 -130s183.667 -210 203 -370h-250c-12 92.667 -53.5 164.334 -124.5 215.001s-155.167 76 -252.5 76c-146 0 -256.5 -54.167 -331.5 -162.5
s-112.5 -239.666 -112.5 -393.999s37.5 -285.833 112.5 -394.5s185.5 -163 331.5 -163h8c124.667 0 221.667 35.333 291 106c70.667 72 107.667 170.333 111 295h-389v195h623v-770h-164l-39 172c-66.667 -76.667 -133.834 -130.334 -201.501 -161.001
s-147.5 -46 -239.5 -46c-212.667 0 -382.5 73.833 -509.5 221.5s-190.5 329.334 -190.5 545.001z" />
    <glyph glyph-name="H" unicode="H" horiz-adv-x="1478" 
d="M150 0v1462h256v-581h665v581h256v-1462h-256v659h-665v-659h-256z" />
    <glyph glyph-name="I" unicode="I" horiz-adv-x="569" 
d="M156 0v1462h256v-1462h-256z" />
    <glyph glyph-name="J" unicode="J" horiz-adv-x="1099" 
d="M27 434v78h256v-76c0 -87.333 15 -152.833 45 -196.5s81.667 -65.5 155 -65.5c79.333 0 133.333 22.5 162 67.5s43 116.833 43 215.5v1005h256v-991c0 -57.333 -3 -107.833 -9 -151.5s-19.333 -88.667 -40 -135s-47.667 -84.5 -81 -114.5s-80 -55 -140 -75
s-130.333 -30 -211 -30c-147.333 0 -256.833 42.667 -328.5 128s-107.5 199 -107.5 341z" />
    <glyph glyph-name="K" unicode="K" horiz-adv-x="1402" 
d="M156 0v1462h256v-665l651 665h315l-583 -583l624 -879h-319l-479 698l-209 -206v-492h-256z" />
    <glyph glyph-name="L" unicode="L" horiz-adv-x="1175" 
d="M156 0v1462h256v-1241h743v-221h-999z" />
    <glyph glyph-name="M" unicode="M" horiz-adv-x="1820" 
d="M152 0v1462h360l403 -1145h5l393 1145h356v-1462h-244v1128h-4l-405 -1128h-211l-406 1128h-4v-1128h-243z" />
    <glyph glyph-name="N" unicode="N" horiz-adv-x="1478" 
d="M145 0v1462h271l667 -1077h4v1077h244v-1462h-270l-666 1075h-6v-1075h-244z" />
    <glyph glyph-name="O" unicode="O" horiz-adv-x="1556" 
d="M78 731.5c0 215.667 63.5 397.167 190.5 544.5s297 221 510 221s383 -73.667 510 -221s190.5 -328.833 190.5 -544.5s-63.5 -397.334 -190.5 -545.001s-297 -221.5 -510 -221.5s-383 73.833 -510 221.5s-190.5 329.334 -190.5 545.001zM334 731.5
c0 -154.333 37.5 -285.833 112.5 -394.5s185.5 -163 331.5 -163s256.667 54.333 332 163s113 240.167 113 394.5s-37.667 285.666 -113 393.999s-186 162.5 -332 162.5s-256.5 -54.167 -331.5 -162.5s-112.5 -239.666 -112.5 -393.999z" />
    <glyph glyph-name="P" unicode="P" horiz-adv-x="1366" 
d="M156 0v1462h645c98 0 181.833 -14.333 251.5 -43s121.167 -67.5 154.5 -116.5s56.833 -97.167 70.5 -144.5s20.5 -96.833 20.5 -148.5s-6.83301 -101 -20.5 -148s-37.167 -94.5 -70.5 -142.5s-84.833 -86.333 -154.5 -115s-153.5 -43 -251.5 -43h-389v-561h-256zM412 770
l374 0.000976562c68 0 127.667 19.167 179 57.5s77 99.833 77 184.5c0 161.333 -83.667 241.666 -251 240.999h-379v-483z" />
    <glyph glyph-name="Q" unicode="Q" horiz-adv-x="1556" 
d="M78 731.5c0 215.667 63.499 397.165 190.499 544.498s297 221 510 221s383 -73.667 510 -221s190.5 -329 190.5 -545c0 -108 -17.167 -212.167 -51.5 -312.5s-86.166 -183.166 -155.499 -248.499l188 -164l-125 -139l-213 186c-104 -58.667 -218.667 -88 -344 -88
c-212.667 0 -382.5 73.833 -509.5 221.5s-190.5 329.334 -190.5 545.001zM333.999 731.498c0 -154.333 37.5 -285.834 112.5 -394.501s185.5 -163 331.5 -163c61.333 0 116 11.667 164 35l-147 129l123 141l178 -155c84.667 101.333 127 237 127 407
c0 154 -37.667 285.333 -113 394s-186 163 -332 163s-256.5 -54.167 -331.5 -162.5s-112.5 -239.666 -112.5 -393.999z" />
    <glyph glyph-name="R" unicode="R" horiz-adv-x="1441" 
d="M156 0l-0.00195312 1462h698c158.667 0 278.834 -34.5 360.501 -103.5s122.5 -166.167 122.5 -291.5c0 -190 -80.333 -313 -241 -369v-4c57.333 -8 107.833 -35.5 151.5 -82.5s65.5 -122.5 65.5 -226.5c0 -199.333 26.667 -327.666 80 -384.999h-275
c-26 42 -39 113.667 -39 215c0 140.667 -20.167 240.334 -60.5 299.001s-117.166 88 -230.499 88h-376v-602h-256zM411.998 796.998h419c166.667 0 250 77.667 250 233c0 86 -22.833 144.667 -68.5 176s-107.5 47 -185.5 47h-415v-456z" />
    <glyph glyph-name="S" unicode="S" horiz-adv-x="1327" 
d="M68 487h255.999c0 -106.667 34 -185.5 102 -236.5s157.333 -76.5 268 -76.5c105.333 0 183.333 21.5 234 64.5s76 95.167 76 156.5c0 90 -40.333 150 -121 180c-30 10.667 -65.167 22 -105.5 34s-93.666 26.167 -159.999 42.5s-123.5 31.166 -171.5 44.499
c-216 58.667 -323.667 182.334 -323 371.001c0 92.667 26.667 172.5 80 239.5s119.5 115.5 198.5 145.5s164.167 45 255.5 45c160 0 293.667 -41.333 401 -124s161 -197 161 -343h-256c-10.667 172 -116 258 -316 258c-70.667 0 -133 -15 -187 -45s-81 -78.333 -81 -145
c0 -94 58 -157 174 -189c1.33301 0 33.333 -8 96 -24l194 -51c66 -18 110 -30.333 132 -37c91.333 -27.333 161.666 -76.166 210.999 -146.499s74 -145.833 74 -226.5c0 -104 -29.167 -191.833 -87.5 -263.5s-129.833 -122.167 -214.5 -151.5s-178 -44 -280 -44
c-177.333 0 -322.666 43.667 -435.999 131s-171.333 217.666 -174 390.999z" />
    <glyph glyph-name="T" unicode="T" horiz-adv-x="1214" 
d="M16 1241v221h1184v-221h-465v-1241h-256v1241h-463z" />
    <glyph glyph-name="U" unicode="U" horiz-adv-x="1478" 
d="M139 526l0.00390625 935.998h256v-852c0 -49.333 1.33301 -89.666 4 -120.999s10.167 -68.5 22.5 -111.5s30.166 -76.667 53.499 -101s57.166 -45.5 101.499 -63.5s98.666 -27 162.999 -27s118.666 9 162.999 27s78 39.167 101 63.5s40.667 58 53 101
s19.833 80.333 22.5 112s4 71.834 4 120.501v852h256v-936c0 -182.667 -53.5 -321.834 -160.5 -417.501s-253.333 -143.5 -439 -143.5s-332.167 47.833 -439.5 143.5s-161 234.834 -161 417.501z" />
    <glyph glyph-name="V" unicode="V" horiz-adv-x="1251" 
d="M-10 1462h266l367 -1157h4l374 1157h261l-500 -1462h-285z" />
    <glyph glyph-name="W" unicode="W" horiz-adv-x="1933" 
d="M12 1462h260l265 -1118h4l295 1118h262l286 -1118h5l272 1118h260l-403 -1462h-261l-292 1118h-4l-299 -1118h-265z" />
    <glyph glyph-name="X" unicode="X" horiz-adv-x="1327" 
d="M-6 0l518 758l-483 704h305l332 -516l346 516h286l-483 -704l518 -758h-311l-365 559l-370 -559h-293z" />
    <glyph glyph-name="Y" unicode="Y" horiz-adv-x="1327" 
d="M-12 1462h297l387 -655l381 655h286l-546 -889v-573h-256v573z" />
    <glyph glyph-name="Z" unicode="Z" horiz-adv-x="1290" 
d="M47 0v209l852 1032h-786v221h1112v-194l-852 -1047h872v-221h-1198z" />
    <glyph glyph-name="bracketleft" unicode="[" horiz-adv-x="606" 
d="M147 -391v1888h457v-184h-235v-1520h235v-184h-457z" />
    <glyph glyph-name="backslash" unicode="\" horiz-adv-x="720" 
d="M-45 1497h223l588 -1532h-223z" />
    <glyph glyph-name="bracketright" unicode="]" horiz-adv-x="606" 
d="M2 -207h236v1520h-236v184h457v-1888h-457v184z" />
    <glyph glyph-name="asciicircum" unicode="^" horiz-adv-x="1228" 
d="M172 686l369 748h147l369 -748h-209l-234 506l-233 -506h-209z" />
    <glyph glyph-name="underscore" unicode="_" horiz-adv-x="1024" 
d="M0 -154h1024v-102h-1024v102z" />
    <glyph glyph-name="grave" unicode="`" horiz-adv-x="493" 
d="M-59 1497h274l186 -293h-170z" />
    <glyph glyph-name="a" unicode="a" 
d="M66 281c0 62.667 11.1699 115.499 33.5029 158.499s55.333 75.667 99 98s85.334 38.333 125.001 48s89.5 17.834 149.5 24.501c23.333 4 55.166 8.5 95.499 13.5s70.666 9.5 90.999 13.5s42.166 10.5 65.499 19.5s40.166 22 50.499 39s15.5 38.5 15.5 64.5
c0 95.333 -73.333 143 -220 143c-68 0 -122.5 -14 -163.5 -42s-64.167 -70 -69.5 -126h-234c8 125.333 56.833 215.333 146.5 270s201.5 82 335.5 82c116 0 215.667 -25.167 299 -75.5s125 -127.5 125 -231.5v-544c0 -28.667 4 -49.167 12 -61.5s22.333 -18.5 43 -18.5
c22 0 41 1.33301 57 4v-162c-50.667 -18 -99.667 -27 -147 -27c-104 0 -164 43 -180 129c-44 -42 -99.5 -74 -166.5 -96s-133.833 -33 -200.5 -33c-102.667 0 -188.667 27.167 -258 81.5s-104 130.5 -104 228.5zM299.003 290.999c0 -46.667 22.832 -80.833 68.499 -102.5
s94.5 -32.5 146.5 -32.5c62.667 0 122 16.667 178 50s84 83.333 84 150v174c-22 -13.333 -47.667 -23.833 -77 -31.5s-67.166 -14.167 -113.499 -19.5s-78.5 -9.33301 -96.5 -12c-58.667 -9.33301 -105 -27 -139 -53s-51 -67 -51 -123z" />
    <glyph glyph-name="b" unicode="b" horiz-adv-x="1251" 
d="M129 0v1462h233v-540h5c31.333 50.667 76.333 90.834 135 120.501s118.667 44.5 180 44.5c160 0 282.667 -52.833 368 -158.5s128 -240.5 128 -404.5c0 -154 -39.333 -284.667 -118 -392s-191.667 -161 -339 -161c-186 0 -308.333 58 -367 174h-4v-145h-221zM354 527.999
c0 -109.333 26.667 -198.667 80 -268s125.666 -104 216.999 -104c98 0 171.333 36.167 220 108.5s73 160.166 73 263.499c0 102.667 -26 190.834 -78 264.501s-123.667 110.5 -215 110.5c-95.333 0 -168.666 -33.5 -219.999 -100.5s-77 -158.5 -77 -274.5z" />
    <glyph glyph-name="c" unicode="c" 
d="M72 518c0 168 44.998 304.832 134.998 410.499s219 158.5 387 158.5c130 0 239.333 -32.667 328 -98s138.334 -160 149.001 -284h-233c-9.33301 62.667 -35.666 111.334 -78.999 146.001s-97.666 52 -162.999 52c-34 0 -66.333 -5.5 -97 -16.5s-61.5 -29.333 -92.5 -55
s-55.667 -65.167 -74 -118.5s-27.5 -118.333 -27.5 -195c0 -100 23.167 -185.333 69.5 -256s116.833 -106 211.5 -106c68 0 124.167 21.5 168.5 64.5s72.166 101.833 83.499 176.5h233c-22 -138 -74.167 -243.5 -156.5 -316.5s-191.833 -109.5 -328.5 -109.5
c-161.333 0 -287.333 50.833 -378 152.5s-136 233.167 -136 394.5z" />
    <glyph glyph-name="d" unicode="d" horiz-adv-x="1251" 
d="M72 537c0 180 44.665 316.668 133.998 410.001s197.333 140 324 140c72.667 0 141 -13.833 205 -41.5s113.333 -68.834 148 -123.501h4v540h233v-1462h-221v143h-4c-28.667 -57.333 -72.667 -100.333 -132 -129s-124.666 -43 -195.999 -43
c-161.333 0 -284.166 52.667 -368.499 158s-126.5 241.333 -126.5 408zM304.998 518.001c0 -100 24.998 -185.333 74.998 -256s122.667 -106 218 -106c96.667 0 170.334 36.833 221.001 110.5s76 161.5 76 263.5c0 116 -26.333 207.167 -79 273.5s-124 99.5 -214 99.5
c-101.333 0 -176.166 -37.167 -224.499 -111.5s-72.5 -165.5 -72.5 -273.5z" />
    <glyph glyph-name="e" unicode="e" 
d="M72 528c0 155.333 46.999 287.333 140.999 396s217.667 163 371 163c162.667 0 291.667 -62 387 -186c78.667 -102 118 -217.667 118 -347c0 -28 -2 -56.333 -6 -85h-778c0 -88.667 24.333 -163 73 -223s119.334 -90 212.001 -90c131.333 0 217.333 58.667 258 176h221
c-24.667 -113.333 -81 -201.833 -169 -265.5s-191.333 -95.5 -310 -95.5c-162.667 0 -289.667 51.167 -381 153.5s-137 236.833 -137 403.5zM304.999 623h545c-4 78 -30.333 144.167 -79 198.5s-111 81.5 -187 81.5c-79.333 0 -145 -26.5 -197 -79.5
s-79.333 -119.833 -82 -200.5z" />
    <glyph glyph-name="f" unicode="f" horiz-adv-x="645" 
d="M18 885v173.999h175v88c0 122.667 26.167 205.834 78.5 249.501s123.5 65.5 213.5 65.5c75.333 0 130 -4.66699 164 -14v-182c-31.333 8 -67.333 12 -108 12c-76.667 0 -115 -37 -115 -111v-108h199v-174h-199v-885h-233v885h-175z" />
    <glyph glyph-name="g" unicode="g" horiz-adv-x="1214" 
d="M72 557c0 148.667 43.3369 274.166 130.004 376.499s203 153.5 349 153.5c69.333 0 131.666 -14.667 186.999 -44s97.333 -72.666 126 -129.999h4v146h234v-1004c0 -157.333 -44.333 -275.833 -133 -355.5s-217.667 -119.5 -387 -119.5c-78 0 -149.5 9.66699 -214.5 29
s-122.667 54.833 -173 106.5s-78.833 116.5 -85.5 194.5h233c13.333 -61.333 41.666 -102.666 84.999 -123.999s99.666 -32 168.999 -32c181.333 0 272 90.333 272 271v161h-4c-32.667 -58.667 -77.334 -104.334 -134.001 -137.001s-117.667 -49 -183 -49
c-108 0 -198.5 26 -271.5 78s-125.167 118.5 -156.5 199.5s-47 174.167 -47 279.5zM305.004 534.999c0 -95.333 23.5 -177.666 70.5 -246.999s116.5 -104 208.5 -104c95.333 0 166.5 36.167 213.5 108.5s70.5 159.166 70.5 260.499c0 100 -23.5 183.333 -70.5 250
s-118.333 100 -214 100s-166 -36 -211 -108s-67.5 -158.667 -67.5 -260z" />
    <glyph glyph-name="h" unicode="h" horiz-adv-x="1175" 
d="M123 0l-0.000976562 1462h233v-542h4c30 49.333 73.333 89.5 130 120.5s119.334 46.5 188.001 46.5c117.333 0 209.166 -30.667 275.499 -92s99.5 -150.666 99.5 -267.999v-727h-234v666c-1.33301 82 -18.666 142 -51.999 180s-85 57 -155 57
c-76.667 0 -138.5 -26.667 -185.5 -80s-70.5 -119.333 -70.5 -198v-625h-233z" />
    <glyph glyph-name="i" unicode="i" horiz-adv-x="493" 
d="M129 0v1059h233v-1059h-233zM129 1241v221h233v-221h-233z" />
    <glyph glyph-name="j" unicode="j" horiz-adv-x="493" 
d="M-45 -227c40.667 -5.33301 67.335 -8.33301 80.002 -9c39.333 0 64.833 11.667 76.5 35s17.5 63.666 17.5 120.999v1139h233v-1149c0 -109.333 -23.833 -191.666 -71.5 -246.999s-124.834 -83 -231.501 -83c-28.667 0 -63.334 2.66699 -104.001 8v185zM129.001 1241v221
h233v-221h-233z" />
    <glyph glyph-name="k" unicode="k" horiz-adv-x="1099" 
d="M129 0v1462h233v-831l422 428h287l-405 -389l444 -670h-285l-323 514l-140 -135v-379h-233z" />
    <glyph glyph-name="l" unicode="l" horiz-adv-x="493" 
d="M129 0v1462h233v-1462h-233z" />
    <glyph glyph-name="m" unicode="m" horiz-adv-x="1781" 
d="M123 0l-0.000976562 1059h221v-148h6c78 117.333 186.667 176 326 176c68 0 128.667 -15 182 -45s91.666 -73.667 114.999 -131c84.667 117.333 195.334 176 332.001 176c116 0 204 -27.833 264 -83.5s90 -146.5 90 -272.5v-731h-234v618
c0 39.333 -0.666992 71.166 -2 95.499s-5.66602 50 -12.999 77s-17.5 47.667 -30.5 62s-31.833 26.333 -56.5 36s-54.667 14.5 -90 14.5c-150 0 -225 -94 -225 -282v-621h-234v680c0 76.667 -14 133 -42 169s-76 54 -144 54c-64 0 -118.667 -24.5 -164 -73.5
s-68 -115.833 -68 -200.5v-629h-233z" />
    <glyph glyph-name="n" unicode="n" horiz-adv-x="1175" 
d="M123 0l0.000976562 1059h221v-156l4 -4c35.333 58.667 81.666 104.667 138.999 138s121 50 191 50c117.333 0 209.166 -30.667 275.499 -92s99.5 -150.666 99.5 -267.999v-727h-234v666c-1.33301 82 -18.666 142 -51.999 180s-85 57 -155 57
c-76.667 0 -138.5 -26.667 -185.5 -80s-70.5 -119.333 -70.5 -198v-625h-233z" />
    <glyph glyph-name="o" unicode="o" horiz-adv-x="1214" 
d="M74 530c0 165.333 47.333 299.5 142 402.5s225.334 154.5 392.001 154.5s297.5 -51.5 392.5 -154.5s142.5 -237.167 142.5 -402.5c0 -166.667 -47.5 -301.5 -142.5 -404.5s-225.833 -154.5 -392.5 -154.5s-297.334 51.5 -392.001 154.5s-142 237.833 -142 404.5zM307 530
c0 -102.667 25.667 -190.667 77 -264s126.166 -110 224.499 -110s173 36.833 224 110.5s76.5 161.5 76.5 263.5c0 101.333 -25.5 188.833 -76.5 262.5s-125.667 110.5 -224 110.5s-173.166 -36.833 -224.499 -110.5s-77 -161.167 -77 -262.5z" />
    <glyph glyph-name="p" unicode="p" horiz-adv-x="1251" 
d="M129 -391v1450h221v-144h4c62.667 114.667 172 172 328 172c160 0 282.667 -52.833 368 -158.5s128 -240.5 128 -404.5c0 -154 -39.333 -284.667 -118 -392s-191.667 -161 -339 -161c-72.667 0 -141 13.667 -205 41s-113.667 69 -149 125h-5v-528h-233zM354 528
c0 -109.333 26.667 -198.667 80 -268s125.666 -104 216.999 -104c98 0 171.333 36.167 220 108.5s73 160.166 73 263.499c0 102.667 -26 190.834 -78 264.501s-123.667 110.5 -215 110.5c-95.333 0 -168.666 -33.5 -219.999 -100.5s-77 -158.5 -77 -274.5z" />
    <glyph glyph-name="q" unicode="q" horiz-adv-x="1251" 
d="M72 524c0 164 42.667 298.833 128 404.5s207.666 158.5 366.999 158.5c155.333 0 264.666 -57.333 327.999 -172h4v144h221v-1450h-233v528h-4c-35.333 -56 -85.166 -97.667 -149.499 -125s-132.833 -41 -205.5 -41c-147.333 0 -260.166 53.667 -338.499 161
s-117.5 238 -117.5 392zM305 528c0 -104 24.332 -192 72.999 -264s122 -108 220 -108s172 33.333 222 100s75 157.334 75 272.001c0 116 -25.667 207.5 -77 274.5s-124.666 100.5 -219.999 100.5c-91.333 0 -163 -36.833 -215 -110.5s-78 -161.834 -78 -264.501z" />
    <glyph glyph-name="r" unicode="r" horiz-adv-x="720" 
d="M123 0v1059h219v-205h4c13.333 58.667 50.833 112.167 112.5 160.5s127.167 72.5 196.5 72.5c18 0 47.333 -2 88 -6v-225c-54.667 6.66699 -88 10 -100 10c-83.333 0 -152 -32 -206 -96s-81 -152.667 -81 -266v-504h-233z" />
    <glyph glyph-name="s" unicode="s" horiz-adv-x="1062" 
d="M66 340l232.997 0.000976562c10.667 -122.667 90.667 -184 240 -184c26 0 51.167 1.66699 75.5 5s49.833 9.5 76.5 18.5s47.667 23.167 63 42.5c14 18 20.667 40 20 66c0 19.333 -3.66699 37.333 -11 54c-6 13.333 -16.167 25.166 -30.5 35.499s-28.333 19 -42 26
s-32.834 13.833 -57.501 20.5s-45.167 12 -61.5 16s-40.166 9.16699 -71.499 15.5s-55.333 11.5 -72 15.5c-49.333 10.667 -91.666 22.5 -126.999 35.5s-70.5 30.833 -105.5 53.5s-61.667 52.834 -80 90.501s-27.5 82.167 -27.5 133.5c0 54.667 13.667 102.834 41 144.501
s63.5 73.5 108.5 95.5s92.167 38 141.5 48s99.666 15 150.999 15c118.667 0 218.667 -26.5 300 -79.5s129 -134.833 143 -245.5h-244c-18 94 -89.667 141 -215 141c-28.667 0 -56 -2.33301 -82 -7s-50.833 -15.5 -74.5 -32.5s-35.5 -39.833 -35.5 -68.5
c0 -16.667 3 -31.5 9 -44.5s15.833 -24.333 29.5 -34s27.334 -17.834 41.001 -24.501s32.834 -13.334 57.501 -20.001l62.5 -16.5c17 -4.33301 41.167 -9.5 72.5 -15.5s55.333 -11 72 -15c50.667 -10.667 93.334 -22.667 128.001 -36s69.667 -31.5 105 -54.5
s62.333 -52.667 81 -89s28 -79.833 28 -130.5c0 -79.333 -25 -145.833 -75 -199.5s-109.167 -91.167 -177.5 -112.5s-141.833 -32 -220.5 -32c-139.333 0 -252 31.5 -338 94.5s-129.667 154.5 -131 274.5z" />
    <glyph glyph-name="t" unicode="t" horiz-adv-x="681" 
d="M16 885l0.00292969 174.001h177v317h233v-317h211v-174h-211v-566c0 -54.667 6.5 -92.5 19.5 -113.5s44.167 -31.5 93.5 -31.5c44 0 76.667 2.66699 98 8v-180c-10.667 -1.33301 -26.334 -3 -47.001 -5s-39.5 -3.66699 -56.5 -5s-33.167 -2 -48.5 -2
c-114.667 0 -191.334 21.167 -230.001 63.5s-59.334 111.166 -62.001 206.499v625h-177z" />
    <glyph glyph-name="u" unicode="u" horiz-adv-x="1175" 
d="M123 387l0.00195312 672h233v-649c0 -169.333 67.667 -254 203 -254c173.333 0 260 96 260 288v615h234v-1059h-230v147h-4c-28.667 -52 -71.334 -94.333 -128.001 -127s-114.334 -49 -173.001 -49c-136.667 0 -236.667 34.167 -300 102.5s-95 172.833 -95 313.5z" />
    <glyph glyph-name="v" unicode="v" horiz-adv-x="1062" 
d="M18 1059h254l269 -813h4l258 813h241l-378 -1059h-263z" />
    <glyph glyph-name="w" unicode="w" horiz-adv-x="1593" 
d="M27 1059h247l207 -791h4l199 791h236l190 -791h4l215 791h238l-332 -1059h-240l-196 786h-4l-195 -786h-246z" />
    <glyph glyph-name="x" unicode="x" horiz-adv-x="1099" 
d="M8 0l400 557l-367 502h283l221 -326l231 326h271l-361 -490l406 -569h-281l-268 391l-260 -391h-275z" />
    <glyph glyph-name="y" unicode="y" horiz-adv-x="1062" 
d="M6 1059h255.998l277 -791h4l268 791h244l-412 -1116c-49.333 -122.667 -87.666 -202.667 -114.999 -240c-60 -82 -146.667 -123 -260 -123c-54.667 0 -108.667 4 -162 12v197c57.333 -9.33301 94.333 -14 111 -14c49.333 0 84.833 11.5 106.5 34.5
s40.834 60.5 57.501 112.5l27 82z" />
    <glyph glyph-name="z" unicode="z" horiz-adv-x="1024" 
d="M45 0v164l586 710h-545v185h860v-164l-606 -711h637v-184h-932z" />
    <glyph glyph-name="braceleft" unicode="{" horiz-adv-x="606" 
d="M-8 461v184c42 0 84.5 12 127.5 36s64.5 62 64.5 114v422c0 86 29.667 154.167 89 204.5s117 75.5 173 75.5h187v-184h-113c-76.667 0 -114.667 -48 -114 -144v-399c0 -50.667 -14.5 -93 -43.5 -127s-57 -56.167 -84 -66.5s-55.5 -17.5 -85.5 -21.5v-4
c140.667 -13.333 211.667 -89 213 -227v-387c0 -95.333 38 -143.333 114 -144h113v-184h-187c-56 0 -113.667 25.167 -173 75.5s-89 118.5 -89 204.5v406c0 58.667 -21.5 101 -64.5 127s-85.5 39 -127.5 39z" />
    <glyph glyph-name="bar" unicode="|" horiz-adv-x="454" 
d="M123 -438v2048h209v-2048h-209z" />
    <glyph glyph-name="braceright" unicode="}" horiz-adv-x="606" 
d="M-27 -207h113c76.667 0 115 48 115 144v399c0 50.667 14.333 93 43 127s56.667 56.167 84 66.5s56 17.5 86 21.5v4c-140.667 13.333 -211.667 89 -213 227v387c0 95.333 -38.333 143.333 -115 144h-113v184h187c56 0 113.667 -25.167 173 -75.5s89 -118.5 89 -204.5v-406
c0 -58.667 21.5 -101 64.5 -127s85.5 -39 127.5 -39v-184c-42 0 -84.5 -12 -127.5 -36s-64.5 -62 -64.5 -114v-422c0 -86 -29.667 -154.167 -89 -204.5s-117 -75.5 -173 -75.5h-187v184z" />
    <glyph glyph-name="asciitilde" unicode="~" horiz-adv-x="1228" 
d="M141 516c61.333 117.333 146.667 176.002 256 176.002c53.333 0 129.333 -21.667 228 -65l44 -20l47 -20l41 -17c16 -6 30 -10.333 42 -13s23.667 -4 35 -4c26 0 51.167 8.5 75.5 25.5s41.833 32.167 52.5 45.5l52 68l73 -172
c-27.333 -36.667 -49.833 -65.334 -67.5 -86.001s-43.5 -40.834 -77.5 -60.501s-71 -29.5 -111 -29.5c-57.333 0 -126.666 22.667 -207.999 68c-84.667 48 -163.334 71.667 -236.001 71c-66.667 0 -124 -46.333 -172 -139z" />
    <glyph glyph-name="uni00A0" unicode="&#xa0;" horiz-adv-x="569" 
 />
    <glyph glyph-name="exclamdown" unicode="&#xa1;" horiz-adv-x="569" 
d="M147 831v256h275v-256h-275zM158 43l67 637h121l68 -637v-418h-256v418z" />
    <glyph glyph-name="cent" unicode="&#xa2;" 
d="M76 518c0 170.667 44.001 308.166 132.001 412.499s201.667 156.5 341 156.5v185h88v-185c116 0 215.333 -34.667 298 -104s128.667 -162 138 -278h-233c-6.66699 58.667 -28.834 106.334 -66.501 143.001s-83.167 55 -136.5 55v-747c122.667 20.667 193 101 211 241h233
c-24.667 -134 -74.167 -238.5 -148.5 -313.5s-172.833 -112.5 -295.5 -112.5v-184h-88v184c-143.333 0 -258 52.667 -344 158s-129 235 -129 389zM309.001 517.999c0 -91.333 19.8311 -171.5 59.498 -240.5s99.834 -109.5 180.501 -121.5v747
c-83.333 -8 -144.166 -49.667 -182.499 -125s-57.5 -162 -57.5 -260z" />
    <glyph glyph-name="sterling" unicode="&#xa3;" 
d="M63 653l-0.00292969 133.001h130c-64 79.333 -96.333 175.666 -97 288.999c0 122.667 48.5 223.667 145.5 303s208.167 119 333.5 119c160 0 285.333 -43 376 -129s137 -211.667 139 -377h-234c-9.33301 207.333 -101.333 311.333 -276 312
c-65.333 0 -119.666 -21.5 -162.999 -64.5s-65 -101.5 -65 -175.5c0 -68 31.333 -160.333 94 -277h302v-133h-252c22 -40.667 32.667 -86.334 32 -137.001c0 -121.333 -68.667 -233.333 -206 -336l4 -4c91.333 36.667 154 55 188 55c44 0 99.333 -11.333 166 -34
c60 -24.667 110.333 -37 151 -37c72.667 0 139 26 199 78l105 -158c-88.667 -76.667 -198 -115 -328 -115c-19.333 0 -40.166 1.66699 -62.499 5s-47.166 7.83301 -74.499 13.5s-49.333 9.83398 -66 12.501c-90 27.333 -161.667 41 -215 41
c-83.333 0 -152.333 -23.333 -207 -70l-108 166c57.333 38 108.5 88.167 153.5 150.5s67.5 122.833 67.5 181.5c0 65.333 -14.333 128 -43 188h-189z" />
    <glyph glyph-name="currency" unicode="&#xa4;" 
d="M41 299l117 125c-68 76.667 -102.333 173.667 -103 291c0 130 34.333 228.333 103 295l-117 125l117 116l116 -114c74 62.667 173.667 94 299 94c118.667 0 212.334 -30.667 281.001 -92l119 116l125 -125l-115 -118c64 -68 96 -165.667 96 -293
c0 -121.333 -32.667 -221 -98 -299l113 -121l-113 -113l-117 119c-70.667 -68 -168.334 -102 -293.001 -102c-126.667 0 -227 33.333 -301 100l-114 -119zM276 715c0 -84.667 28.335 -156.333 85.002 -215s126.667 -88 210 -88c82 0 150.333 30 205 90s82 132.333 82 217
c0 82 -27.333 153 -82 213s-122.334 90 -203.001 90c-84.667 0 -155.334 -29.667 -212.001 -89s-85 -132 -85 -218z" />
    <glyph glyph-name="yen" unicode="&#xa5;" 
d="M-10 1462h260l319 -655l326 655h254l-385 -719h203v-133h-281v-139h281v-133h-281v-338h-233v338h-281v133h281v139h-281v133h201z" />
    <glyph glyph-name="brokenbar" unicode="&#xa6;" horiz-adv-x="454" 
d="M123 -182v512h209v-512h-209zM123 842v512h209v-512h-209z" />
    <glyph glyph-name="section" unicode="&#xa7;" 
d="M45 639c0 140.667 73.665 242.333 220.998 305c-58.667 60 -88 129 -88 207c0 104 41 187.667 123 251s175.667 95 281 95c118.667 0 216.5 -34.833 293.5 -104.5s116.167 -163.834 117.5 -282.501h-221c-2.66699 58.667 -21 107.167 -55 145.5s-79.667 57.5 -137 57.5
c-44 0 -83 -14.667 -117 -44s-51 -66 -51 -110c0 -13.333 1.66699 -26.5 5 -39.5s9.5 -25.667 18.5 -38l25.5 -34c8 -10.333 20.333 -21.166 37 -32.499l41 -29c10.667 -7.33301 27.334 -17 50.001 -29l51 -26l56 -29l56 -28c108 -54.667 192.333 -111 253 -169
s91 -130.667 91 -218c0 -64 -20.833 -124 -62.5 -180s-93.167 -94 -154.5 -114c75.333 -62.667 112.666 -150.334 111.999 -263.001c0 -110.667 -39.5 -196.667 -118.5 -258s-174.5 -92 -286.5 -92c-128.667 0 -233.5 36.833 -314.5 110.5s-123.833 176.834 -128.5 309.501
h222c10.667 -157.333 82.334 -236 215.001 -236c118.667 0 178 55.333 178 166c0 16.667 -1.66699 32.5 -5 47.5s-10 29.167 -20 42.5l-26 37c-8 10.667 -20.667 22.667 -38 36l-43 32c-11.333 8 -28.333 18.5 -51 31.5s-40.334 22.5 -53.001 28.5l-59 31l-57 30
c-53.333 27.333 -98.166 51.833 -134.499 73.5s-73.666 49 -111.999 82s-67 69.167 -86 108.5s-28.5 82.333 -28.5 129zM265.998 665.999c0 -64 37.667 -117.333 113 -160l373 -209c82 35.333 122.667 91.333 122 168c0 60 -47.667 116.667 -143 170l-340 194
c-36.667 -10.667 -66.667 -31 -90 -61s-35 -64 -35 -102z" />
    <glyph glyph-name="dieresis" unicode="&#xa8;" horiz-adv-x="493" 
d="M-45 1227v221h233v-221h-233zM307 1227v221h234v-221h-234z" />
    <glyph glyph-name="copyright" unicode="&#xa9;" horiz-adv-x="1638" 
d="M68 731c0 225.333 73.333 409.333 220 552s324.334 214 533.001 214c206 0 382.5 -71.333 529.5 -214s220.5 -326.667 220.5 -552s-73.5 -409.333 -220.5 -552s-323.5 -214 -529.5 -214c-218.667 0 -398.834 72.667 -540.501 218s-212.5 328 -212.5 548zM231 731
c0 -178.667 54 -328.833 162 -450.5s250.667 -182.5 428 -182.5c166.667 0 306 59.5 418 178.5s168 270.667 168 455s-56.333 335.833 -169 454.5s-251.667 178 -417 178c-168 0 -308.333 -59.5 -421 -178.5s-169 -270.5 -169 -454.5zM412 731.001
c0 126.667 38.832 231.334 116.499 314.001s182.167 124.667 313.5 126c95.333 0 176.833 -26.833 244.5 -80.5s107.5 -129.834 119.5 -228.501h-139c-10.667 53.333 -36.5 96 -77.5 128s-90.167 48 -147.5 48c-83.333 0 -148.666 -29 -195.999 -87s-71 -131.333 -71 -220
c0 -91.333 25 -169.166 75 -233.499s115.333 -96.5 196 -96.5c60 0 110.167 17.167 150.5 51.5s63.833 78.166 70.5 131.499h141c-18 -95.333 -60 -171.833 -126 -229.5s-144.667 -86.5 -236 -86.5c-130 0 -234.833 43.667 -314.5 131s-119.5 198 -119.5 332z" />
    <glyph glyph-name="ordfeminine" unicode="&#xaa;" horiz-adv-x="778" 
d="M33 954c0 30 5.83398 56.6699 17.501 80.0029s25 41.5 40 54.5s37.167 24.667 66.5 35s53.166 17.5 71.499 21.5s45.166 8.66699 80.499 14c8 1.33301 19.333 3 34 5s26 3.66699 34 5s18 3.66602 30 6.99902l26 6c6 1.33301 13.167 3.33301 21.5 6s14.833 5.66699 19.5 9
s9.16699 7 13.5 11s7.5 8.5 9.5 13.5s3 10.167 3 15.5c0 27.333 -7.16699 48.166 -21.5 62.499s-29 22.833 -44 25.5s-34.167 4 -57.5 4c-90 0 -138 -28.667 -144 -86h-174c8 78 42.5 134 103.5 168s135.833 51 224.5 51c79.333 0 147.666 -16 204.999 -48
s86 -79.333 86 -142v-309c0 -16.667 2.33301 -28.834 7 -36.501s14 -10.5 28 -8.5c12 0 22.667 0.666992 32 2v-140c-30 -10.667 -62 -16 -96 -16c-74 0 -116.333 33.333 -127 100c-19.333 -28.667 -53.166 -52.5 -101.499 -71.5s-94.166 -28.5 -137.499 -28.5
c-68 0 -126.667 16.667 -176 50s-74 80 -74 140zM211.001 965.003c0 -45.333 38.333 -68 115 -68c116 0 174 36.333 174 109v90c-20.667 -9.33301 -78 -22.333 -172 -39c-78 -12 -117 -42.667 -117 -92z" />
    <glyph glyph-name="guillemotleft" unicode="&#xab;" horiz-adv-x="948" 
d="M102 442v230l318 252v-211l-195 -156l195 -156v-211zM508 442v230l317 252v-211l-194 -156l194 -156v-211z" />
    <glyph glyph-name="logicalnot" unicode="&#xac;" horiz-adv-x="1228" 
d="M98 621v208h1032v-608h-208v400h-824z" />
    <glyph glyph-name="uni00AD" unicode="&#xad;" horiz-adv-x="796" 
d="M100 446v222h596v-222h-596z" />
    <glyph glyph-name="registered" unicode="&#xae;" horiz-adv-x="1638" 
d="M68 731c0 225.333 73.333 409.333 220 552s324.334 214 533.001 214c206 0 382.5 -71.333 529.5 -214s220.5 -326.667 220.5 -552s-73.5 -409.333 -220.5 -552s-323.5 -214 -529.5 -214c-218.667 0 -398.834 72.667 -540.501 218s-212.5 328 -212.5 548zM231 731
c0 -178.667 54 -328.833 162 -450.5s250.667 -182.5 428 -182.5c166.667 0 306 59.5 418 178.5s168 270.667 168 455s-56.333 335.833 -169 454.5s-251.667 178 -417 178c-168 0 -308.333 -59.5 -421 -178.5s-169 -270.5 -169 -454.5zM530 293.001v848h322
c104 0 181.5 -19.5 232.5 -58.5s76.5 -100.833 76.5 -185.5c0 -138 -73.667 -215 -221 -231l238 -373h-158l-219 362h-131v-362h-140zM670 774.001h155c64 0 112.833 8.16699 146.5 24.5s50.5 52.5 50.5 108.5c0 76.667 -61.333 115 -184 115h-168v-248z" />
    <glyph glyph-name="macron" unicode="&#xaf;" horiz-adv-x="493" 
d="M-47 1268v133h590v-133h-590z" />
    <glyph glyph-name="degree" unicode="&#xb0;" horiz-adv-x="819" 
d="M102 1155c0 84.667 30.167 157 90.5 217s132.833 90 217.5 90s157 -30 217 -90s90 -132.333 90 -217s-30 -157 -90 -217s-132.333 -90 -217 -90s-157.167 30 -217.5 90s-90.5 132.333 -90.5 217zM217 1155c0 -53.333 18.833 -98.666 56.5 -135.999s83 -56 136 -56
s98.333 18.667 136 56s56.5 82.666 56.5 135.999s-18.833 98.833 -56.5 136.5s-83 56.5 -136 56.5s-98.333 -18.833 -136 -56.5s-56.5 -83.167 -56.5 -136.5z" />
    <glyph glyph-name="plusminus" unicode="&#xb1;" horiz-adv-x="1228" 
d="M98 0v209h1032v-209h-1032zM98 571v209h412v256h209v-256h411v-209h-411v-256h-209v256h-412z" />
    <glyph glyph-name="uni00B2" unicode="&#xb2;" horiz-adv-x="737" 
d="M43 559c1.33301 150 69.666 266.668 204.999 350.001c13.333 9.33301 37.833 25 73.5 47s62.334 39.167 80.001 51.5s38.167 28.666 61.5 48.999s40 41.5 50 63.5s15.667 46 17 72c0 42 -14.333 73.667 -43 95s-64 32 -106 32c-94 0 -144 -63.667 -150 -191h-178
c0 104 30 185.667 90 245s142 89 246 89c92.667 0 169.167 -22.167 229.5 -66.5s90.5 -110.833 90.5 -199.5c0 -104 -69.667 -200.333 -209 -289l-76 -48l-81 -52c-16 -10.667 -33.5 -26 -52.5 -46s-31.833 -39.667 -38.5 -59h436v-143h-645z" />
    <glyph glyph-name="uni00B3" unicode="&#xb3;" horiz-adv-x="737" 
d="M33 858l164.002 0.00390625c-2.66699 -50.667 11.333 -92.334 42 -125.001s74 -49 130 -49c49.333 0 90.666 13.333 123.999 40s50 61.667 50 105c0 58.667 -22.167 98 -66.5 118s-103.5 28.667 -177.5 26v119c57.333 -2.66699 106.166 6.16602 146.499 26.499
s60.5 53.166 60.5 98.499c0 34 -14.333 59.5 -43 76.5s-61.334 25.5 -98.001 25.5c-45.333 0 -82 -14.667 -110 -44s-41.333 -66.666 -40 -111.999h-164c4 94 34 167.333 90 220s131.333 79 226 79c84.667 0 156.334 -19.333 215.001 -58s88 -98.334 88 -179.001
c0 -92.667 -43.667 -154.334 -131 -185.001v-4c52 -9.33301 93 -33.5 123 -72.5s45 -86.5 45 -142.5c0 -87.333 -32.167 -155.833 -96.5 -205.5s-144.833 -74.5 -241.5 -74.5c-109.333 0 -192 27.5 -248 82.5s-85.333 133.167 -88 234.5z" />
    <glyph glyph-name="acute" unicode="&#xb4;" horiz-adv-x="493" 
d="M92 1204l184 293h277l-291 -293h-170z" />
    <glyph glyph-name="uni00B5" unicode="&#xb5;" horiz-adv-x="1175" 
d="M123 -391l0.00195312 1450h233v-649c0 -169.333 67.667 -254 203 -254c173.333 0 260 96 260 288v615h234v-1059h-230v147h-4c-27.333 -52 -68.333 -94.333 -123 -127s-106.334 -49 -155.001 -49c-80.667 0 -142.334 24.667 -185.001 74v-436h-233z" />
    <glyph glyph-name="paragraph" unicode="&#xb6;" horiz-adv-x="1228" 
d="M63 1077c0 132.667 41.999 230.001 125.999 292.001s201.333 93 352 93h530v-1790h-164v1657h-239v-1657h-164v1033c-131.333 0 -237.666 34.667 -318.999 104s-122 158.666 -122 267.999z" />
    <glyph glyph-name="periodcentered" unicode="&#xb7;" horiz-adv-x="569" 
d="M131 618c0 39.333 15.666 74.5 46.999 105.5s67 46.5 107 46.5c40.667 0 76.334 -15.333 107.001 -46s46 -66 46 -106c0 -40.667 -15.333 -76.667 -46 -108s-66.5 -47 -107.5 -47s-76.833 15.667 -107.5 47s-46 67.333 -46 108z" />
    <glyph glyph-name="cedilla" unicode="&#xb8;" horiz-adv-x="493" 
d="M18 -410l37.001 82c65.333 -22 109.666 -32.667 132.999 -32c83.333 0 125 28 125 84c0 24.667 -9.5 43.667 -28.5 57s-40.833 20 -65.5 20c-30 0 -56.667 -6.66699 -80 -20l-45 39l135 180h99l-92 -119v-4c10.667 4 33 6 67 6c45.333 0 85.666 -13.333 120.999 -40
s53 -63.667 53 -111c0 -64 -24.167 -110.833 -72.5 -140.5s-106.833 -44.5 -175.5 -44.5c-91.333 0 -161.666 14.333 -210.999 43z" />
    <glyph glyph-name="uni00B9" unicode="&#xb9;" horiz-adv-x="737" 
d="M74 1182v118c74 0 136.5 12 187.5 36s82.5 60 94.5 108h144v-885h-178v623h-248z" />
    <glyph glyph-name="ordmasculine" unicode="&#xba;" horiz-adv-x="778" 
d="M31 1112c0 106.667 31.667 191.667 95 255s153 95 269 95s205.833 -31.667 269.5 -95s95.5 -148.333 95.5 -255s-31.833 -191.334 -95.5 -254.001s-153.5 -94 -269.5 -94s-205.667 31.333 -269 94s-95 147.334 -95 254.001zM209 1112c0 -57.333 16.333 -107.5 49 -150.5
s78.334 -64.5 137.001 -64.5c60 0 105 21.167 135 63.5s47.333 92.833 52 151.5c0 56 -16.5 106.167 -49.5 150.5s-78.833 66.5 -137.5 66.5s-104.334 -21.833 -137.001 -65.5s-49 -94.167 -49 -151.5z" />
    <glyph glyph-name="guillemotright" unicode="&#xbb;" horiz-adv-x="948" 
d="M123 190v211l194 156l-194 156v211l317 -252v-230zM528 190v211l195 156l-195 156v211l318 -252v-230z" />
    <glyph glyph-name="onequarter" unicode="&#xbc;" horiz-adv-x="1708" 
d="M76 1182l-0.000976562 118c72.667 0 134.834 12 186.501 36s83.5 60 95.5 108h144v-885h-178v623h-248zM288.999 -49l858 1532h160l-856 -1532h-162zM894.999 199v166l379 512h199v-525h96v-153h-96v-199h-179v199h-399zM1051 352h243v324h-4z" />
    <glyph glyph-name="onehalf" unicode="&#xbd;" horiz-adv-x="1708" 
d="M74 1182v118c74 0 136.5 12 187.5 36s82.5 60 94.5 108h144v-885h-178v623h-248zM281 -49l858 1532h159l-856 -1532h-161zM969 0c0 91.333 21.4971 165.003 64.4971 221.003s102.5 108 178.5 156c12 8 34.833 22 68.5 42s57.334 34.667 71.001 44
s30.834 23.166 51.501 41.499s34.667 37.833 42 58.5s11 44 11 70c0 42 -14 75.333 -42 100s-63.667 37 -107 37c-94 0 -144 -67 -150 -201h-178c0 106.667 29.333 190.667 88 252s141.334 92 248.001 92c92.667 0 169 -23.5 229 -70.5s90 -115.5 90 -205.5
c0 -62.667 -18.333 -115.834 -55 -159.501s-88 -86.834 -154 -129.501c-12 -8 -32.667 -21 -62 -39l-65 -40c-13.333 -8.66699 -29.833 -20.5 -49.5 -35.5s-35 -30 -46 -45s-19.167 -30.167 -24.5 -45.5h436v-143h-645z" />
    <glyph glyph-name="threequarters" unicode="&#xbe;" horiz-adv-x="1708" 
d="M33 858l164.002 0.00195312c-2.66699 -50.667 11.333 -92.334 42 -125.001s74 -49 130 -49c49.333 0 90.666 13.333 123.999 40s50 61.667 50 105c0 100 -81.333 147.333 -244 142v119c57.333 -2.66699 106.166 6.5 146.499 27.5s60.5 54.167 60.5 99.5
c0 34 -14.333 59.5 -43 76.5s-61.334 25.5 -98.001 25.5c-45.333 0 -82 -14.667 -110 -44s-41.333 -66.666 -40 -111.999h-164c4 94 34 167.333 90 220s131.333 79 226 79c84.667 0 156.334 -19.333 215.001 -58s88 -98.334 88 -179.001
c0 -92.667 -43.667 -154.334 -131 -185.001v-4c52 -9.33301 93 -33.5 123 -72.5s45 -86.5 45 -142.5c0 -87.333 -32.167 -155.833 -96.5 -205.5s-144.833 -74.5 -241.5 -74.5c-109.333 0 -192 27.5 -248 82.5s-85.333 133.167 -88 234.5zM401.002 -48.998l859 1532h159
l-856 -1532h-162zM971.002 199.002v166l375 512h202v-525h97v-153h-97v-199h-178v199h-399zM1126 352.002h244v324h-4z" />
    <glyph glyph-name="questiondown" unicode="&#xbf;" 
d="M100 -6c0 46.667 4.49707 87.3359 13.4971 122.003s24 66 45 94s38.667 49.167 53 63.5s37.5 34.5 69.5 60.5c45.333 38 77.833 67.333 97.5 88s38.334 53.5 56.001 98.5s26.5 98.167 26.5 159.5h221c0 -113.333 -12 -198.333 -36 -255s-65.333 -110.334 -124 -161.001
c-5.33301 -5.33301 -16 -14.333 -32 -27l-31 -27c-5.33301 -4.66699 -14.166 -13.167 -26.499 -25.5s-21.333 -22 -27 -29s-12.167 -17 -19.5 -30s-12.666 -24.833 -15.999 -35.5s-6.5 -23.834 -9.5 -39.501s-4.5 -31.834 -4.5 -48.501
c0 -69.333 21.833 -122.833 65.5 -160.5s88.834 -56.5 135.501 -56.5c82 0 143.833 26.667 185.5 80s62.5 125 62.5 215h233c1.33301 -146 -42.667 -264.167 -132 -354.5s-209 -135.5 -359 -135.5c-128.667 0 -235.334 36.333 -320.001 109s-127 171 -127 295z
M429.997 831.002v256h275v-256h-275z" />
    <glyph glyph-name="Agrave" unicode="&#xc0;" horiz-adv-x="1366" 
d="M-14 0l561 1462h272l563 -1462h-274l-137 387h-584l-137 -387h-264zM377 1901h274l187 -293h-170zM457 582h446l-219 628h-6z" />
    <glyph glyph-name="Aacute" unicode="&#xc1;" horiz-adv-x="1366" 
d="M-14 0l561 1462h272l563 -1462h-274l-137 387h-584l-137 -387h-264zM457 582h446l-219 628h-6zM528 1577l185 293h276l-291 -293h-170z" />
    <glyph glyph-name="Acircumflex" unicode="&#xc2;" horiz-adv-x="1366" 
d="M-14 0l561 1462h272l563 -1462h-274l-137 387h-584l-137 -387h-264zM350 1608l219 293h228l221 -293h-191l-145 184l-143 -184h-189zM457 582h446l-219 628h-6z" />
    <glyph glyph-name="Atilde" unicode="&#xc3;" horiz-adv-x="1366" 
d="M-14 0l561 1462h272l563 -1462h-274l-137 387h-584l-137 -387h-264zM322 1622c9.33301 60 32.834 113.501 70.501 160.501s85.167 70.5 142.5 70.5c50.667 0 105.667 -12.667 165 -38c66.667 -26 109 -39 127 -39c52 0 86.333 30 103 90h114
c-10.667 -74 -33 -129.333 -67 -166c-38 -46.667 -91.333 -70 -160 -70c-36.667 0 -87 13 -151 39c-70.667 24.667 -117.834 37 -141.501 37s-44 -8.83301 -61 -26.5s-25.5 -36.834 -25.5 -57.501h-116zM457.001 582.001h446l-219 628h-6z" />
    <glyph glyph-name="Adieresis" unicode="&#xc4;" horiz-adv-x="1366" 
d="M-14 0l561 1462h272l563 -1462h-274l-137 387h-584l-137 -387h-264zM391 1630v221h234v-221h-234zM457 582h446l-219 628h-6zM743 1630v221h234v-221h-234z" />
    <glyph glyph-name="Aring" unicode="&#xc5;" horiz-adv-x="1366" 
d="M-14 0l561 1462h272l563 -1462h-274l-137 387h-584l-137 -387h-264zM457 582h446l-219 628h-6zM473 1739c0 57.333 21.167 106.833 63.5 148.5s91.5 62.5 147.5 62.5c57.333 0 106.833 -20.833 148.5 -62.5s62.5 -91.167 62.5 -148.5
c0 -56 -20.833 -105.167 -62.5 -147.5s-91.167 -63.5 -148.5 -63.5c-56 0 -105.167 21.167 -147.5 63.5s-63.5 91.5 -63.5 147.5zM559 1739c0 -32.667 12.667 -61.667 38 -87s54.333 -38 87 -38c34 0 63.333 12.667 88 38s37 54.333 37 87c0 34 -12.333 63.333 -37 88
s-54 37 -88 37c-32.667 0 -61.667 -12.333 -87 -37s-38 -54 -38 -88z" />
    <glyph glyph-name="AE" unicode="&#xc6;" horiz-adv-x="1972" 
d="M-14 0l727 1462h1179v-221h-712v-383h667v-209h-667v-428h725v-221h-969v375h-490l-176 -375h-284zM541 569h395v672h-74z" />
    <glyph glyph-name="Ccedilla" unicode="&#xc7;" horiz-adv-x="1478" 
d="M78 731c0 216 63.501 397.665 190.501 544.998s296.833 221 509.5 221c169.333 -1.33301 311.333 -46.333 426 -135s179.667 -210.334 195 -365.001h-256c-49.333 194 -171 291 -365 291c-146 0 -256.5 -54.167 -331.5 -162.5s-112.5 -239.666 -112.5 -393.999
s37.5 -285.833 112.5 -394.5s185.5 -163 331.5 -163c109.333 0 196.166 35.833 260.499 107.5s101.833 163.5 112.5 275.5h250c-10.667 -173.333 -71.667 -314.666 -183 -423.999s-253 -164.666 -425 -165.999l-66 -86v-4c10.667 4 33.334 6 68.001 6
c45.333 0 85.666 -13.333 120.999 -40s53 -63.667 53 -111c0 -64 -24.333 -110.833 -73 -140.5s-107 -44.5 -175 -44.5c-91.333 0 -161.666 14.333 -210.999 43l37 82c65.333 -22 109.666 -32.667 132.999 -32c83.333 0 125 28 125 84c0 24.667 -9.5 43.667 -28.5 57
s-40.833 20 -65.5 20c-30 0 -56.667 -6.66699 -80 -20l-45 39l112 149c-190 19.333 -340.833 101 -452.5 245s-167.5 316.333 -167.5 517z" />
    <glyph glyph-name="Egrave" unicode="&#xc8;" horiz-adv-x="1290" 
d="M156 0v1462h1052v-221h-796v-383h737v-209h-737v-428h811v-221h-1067zM340 1901h274l187 -293h-170z" />
    <glyph glyph-name="Eacute" unicode="&#xc9;" horiz-adv-x="1290" 
d="M156 0v1462h1052v-221h-796v-383h737v-209h-737v-428h811v-221h-1067zM492 1608l184 293h276l-290 -293h-170z" />
    <glyph glyph-name="Ecircumflex" unicode="&#xca;" horiz-adv-x="1290" 
d="M156 0v1462h1052v-221h-796v-383h737v-209h-737v-428h811v-221h-1067zM313 1608l219 293h228l221 -293h-190l-146 184l-143 -184h-189z" />
    <glyph glyph-name="Edieresis" unicode="&#xcb;" horiz-adv-x="1290" 
d="M156 0v1462h1052v-221h-796v-383h737v-209h-737v-428h811v-221h-1067zM354 1630v221h234v-221h-234zM707 1630v221h233v-221h-233z" />
    <glyph glyph-name="Igrave" unicode="&#xcc;" horiz-adv-x="569" 
d="M-20 1901h274l186 -293h-170zM156 0v1462h256v-1462h-256z" />
    <glyph glyph-name="Iacute" unicode="&#xcd;" horiz-adv-x="569" 
d="M131 1597l184 293h277l-291 -293h-170zM156 0v1462h256v-1462h-256z" />
    <glyph glyph-name="Icircumflex" unicode="&#xce;" horiz-adv-x="569" 
d="M-47 1608l219 293h227l222 -293h-191l-145 184l-144 -184h-188zM156 0v1462h256v-1462h-256z" />
    <glyph glyph-name="Idieresis" unicode="&#xcf;" horiz-adv-x="569" 
d="M-6 1630v221h233v-221h-233zM156 0v1462h256v-1462h-256zM346 1630v221h234v-221h-234z" />
    <glyph glyph-name="Eth" unicode="&#xd0;" horiz-adv-x="1478" 
d="M18 649l-0.000976562 209.001h138v604h606c214.667 0 375.834 -67.833 483.501 -203.5s161.5 -311.334 161.5 -527.001s-54 -391.5 -162 -527.5s-269 -204 -483 -204h-606v649h-138zM411.999 209.001l252 -0.000976562c96.667 0 178.167 13 244.5 39
s116.5 63.833 150.5 113.5s57.833 103.834 71.5 162.501s20.5 127.667 20.5 207s-6.83301 148.333 -20.5 207s-37.5 113 -71.5 163s-84.167 87.833 -150.5 113.5s-147.833 38.5 -244.5 38.5h-252v-395h399v-209h-399v-440z" />
    <glyph glyph-name="Ntilde" unicode="&#xd1;" horiz-adv-x="1478" 
d="M145 0v1462h271l667 -1077h4v1077h244v-1462h-270l-666 1075h-6v-1075h-244zM379 1622c9.33301 60 32.834 113.501 70.501 160.501s85.167 70.5 142.5 70.5c50.667 0 106 -12.667 166 -38c66.667 -26 109 -39 127 -39c52 0 86 30 102 90h115
c-10.667 -74 -33.334 -129.333 -68.001 -166c-38 -46.667 -91.333 -70 -160 -70c-36.667 0 -87 13 -151 39c-70.667 24.667 -117.667 37 -141 37s-43.5 -8.83301 -60.5 -26.5s-25.5 -36.834 -25.5 -57.501h-117z" />
    <glyph glyph-name="Ograve" unicode="&#xd2;" horiz-adv-x="1556" 
d="M78 731.5c0 215.667 63.5 397.167 190.5 544.5s297 221 510 221s383 -73.667 510 -221s190.5 -328.833 190.5 -544.5s-63.5 -397.334 -190.5 -545.001s-297 -221.5 -510 -221.5s-383 73.833 -510 221.5s-190.5 329.334 -190.5 545.001zM334 731.5
c0 -154.333 37.5 -285.833 112.5 -394.5s185.5 -163 331.5 -163s256.667 54.333 332 163s113 240.167 113 394.5s-37.667 285.666 -113 393.999s-186 162.5 -332 162.5s-256.5 -54.167 -331.5 -162.5s-112.5 -239.666 -112.5 -393.999zM473 1901h275l186 -293h-170z" />
    <glyph glyph-name="Oacute" unicode="&#xd3;" horiz-adv-x="1556" 
d="M78 731.5c0 215.667 63.5 397.167 190.5 544.5s297 221 510 221s383 -73.667 510 -221s190.5 -328.833 190.5 -544.5s-63.5 -397.334 -190.5 -545.001s-297 -221.5 -510 -221.5s-383 73.833 -510 221.5s-190.5 329.334 -190.5 545.001zM334 731.5
c0 -154.333 37.5 -285.833 112.5 -394.5s185.5 -163 331.5 -163s256.667 54.333 332 163s113 240.167 113 394.5s-37.667 285.666 -113 393.999s-186 162.5 -332 162.5s-256.5 -54.167 -331.5 -162.5s-112.5 -239.666 -112.5 -393.999zM625 1577l184 293h276l-290 -293h-170
z" />
    <glyph glyph-name="Ocircumflex" unicode="&#xd4;" horiz-adv-x="1556" 
d="M78 731.5c0 215.667 63.5 397.167 190.5 544.5s297 221 510 221s383 -73.667 510 -221s190.5 -328.833 190.5 -544.5s-63.5 -397.334 -190.5 -545.001s-297 -221.5 -510 -221.5s-383 73.833 -510 221.5s-190.5 329.334 -190.5 545.001zM334 731.5
c0 -154.333 37.5 -285.833 112.5 -394.5s185.5 -163 331.5 -163s256.667 54.333 332 163s113 240.167 113 394.5s-37.667 285.666 -113 393.999s-186 162.5 -332 162.5s-256.5 -54.167 -331.5 -162.5s-112.5 -239.666 -112.5 -393.999zM446 1608l220 293h227l221 -293h-190
l-146 184l-143 -184h-189z" />
    <glyph glyph-name="Otilde" unicode="&#xd5;" horiz-adv-x="1556" 
d="M78 731.5c0 215.667 63.5 397.167 190.5 544.5s297 221 510 221s383 -73.667 510 -221s190.5 -328.833 190.5 -544.5s-63.5 -397.334 -190.5 -545.001s-297 -221.5 -510 -221.5s-383 73.833 -510 221.5s-190.5 329.334 -190.5 545.001zM334 731.5
c0 -154.333 37.5 -285.833 112.5 -394.5s185.5 -163 331.5 -163s256.667 54.333 332 163s113 240.167 113 394.5s-37.667 285.666 -113 393.999s-186 162.5 -332 162.5s-256.5 -54.167 -331.5 -162.5s-112.5 -239.666 -112.5 -393.999zM418 1622
c9.33301 60 32.833 113.501 70.5 160.501s85.167 70.5 142.5 70.5c50.667 0 106 -12.667 166 -38c66.667 -26 109 -39 127 -39c52 0 86 30 102 90h115c-10.667 -74 -33.334 -129.333 -68.001 -166c-38 -46.667 -91.333 -70 -160 -70c-35.333 0 -85.666 13 -150.999 39
c-70.667 24.667 -117.667 37 -141 37s-43.5 -8.83301 -60.5 -26.5s-25.5 -36.834 -25.5 -57.501h-117z" />
    <glyph glyph-name="Odieresis" unicode="&#xd6;" horiz-adv-x="1556" 
d="M78 731.5c0 215.667 63.5 397.167 190.5 544.5s297 221 510 221s383 -73.667 510 -221s190.5 -328.833 190.5 -544.5s-63.5 -397.334 -190.5 -545.001s-297 -221.5 -510 -221.5s-383 73.833 -510 221.5s-190.5 329.334 -190.5 545.001zM334 731.5
c0 -154.333 37.5 -285.833 112.5 -394.5s185.5 -163 331.5 -163s256.667 54.333 332 163s113 240.167 113 394.5s-37.667 285.666 -113 393.999s-186 162.5 -332 162.5s-256.5 -54.167 -331.5 -162.5s-112.5 -239.666 -112.5 -393.999zM487 1630v221h234v-221h-234z
M840 1630v221h233v-221h-233z" />
    <glyph glyph-name="multiply" unicode="&#xd7;" horiz-adv-x="1228" 
d="M113 162l356 356l-356 356l176 115l323 -325l328 325l176 -115l-358 -356l358 -356l-176 -115l-328 328l-323 -328z" />
    <glyph glyph-name="Oslash" unicode="&#xd8;" horiz-adv-x="1556" 
d="M78 731c0 216 63.5 397.667 190.5 545s296.833 221 509.5 221c181.333 0 333 -55.333 455 -166l153 172l89 -73l-162 -183c110.667 -142 166 -314 166 -516c0 -216 -63.5 -397.667 -190.5 -545s-297.167 -221 -510.5 -221c-182.667 0 -334 56 -454 168l-156 -174l-86 74
l162 184c-110.667 140.667 -166 312 -166 514zM334 731c0 -130 24.667 -240 74 -330l673 758c-75.333 86 -176.333 129 -303 129c-146 0 -256.5 -54.333 -331.5 -163s-112.5 -240 -112.5 -394zM475 303c79.333 -86 180.333 -129 303 -129c146 0 256.667 54.333 332 163
s113 240 113 394c0 128.667 -25.333 238.667 -76 330z" />
    <glyph glyph-name="Ugrave" unicode="&#xd9;" horiz-adv-x="1478" 
d="M139 526l0.00390625 935.998h256v-852c0 -49.333 1.33301 -89.666 4 -120.999s10.167 -68.5 22.5 -111.5s30.166 -76.667 53.499 -101s57.166 -45.5 101.499 -63.5s98.666 -27 162.999 -27s118.666 9 162.999 27s78 39.167 101 63.5s40.667 58 53 101
s19.833 80.333 22.5 112s4 71.834 4 120.501v852h256v-936c0 -182.667 -53.5 -321.834 -160.5 -417.501s-253.333 -143.5 -439 -143.5s-332.167 47.833 -439.5 143.5s-161 234.834 -161 417.501zM434.004 1901h275l186 -293h-170z" />
    <glyph glyph-name="Uacute" unicode="&#xda;" horiz-adv-x="1478" 
d="M139 526l0.00390625 935.998h256v-852c0 -49.333 1.33301 -89.666 4 -120.999s10.167 -68.5 22.5 -111.5s30.166 -76.667 53.499 -101s57.166 -45.5 101.499 -63.5s98.666 -27 162.999 -27s118.666 9 162.999 27s78 39.167 101 63.5s40.667 58 53 101
s19.833 80.333 22.5 112s4 71.834 4 120.501v852h256v-936c0 -182.667 -53.5 -321.834 -160.5 -417.501s-253.333 -143.5 -439 -143.5s-332.167 47.833 -439.5 143.5s-161 234.834 -161 417.501zM586.004 1577l184 293h277l-291 -293h-170z" />
    <glyph glyph-name="Ucircumflex" unicode="&#xdb;" horiz-adv-x="1478" 
d="M139 526l0.00390625 935.998h256v-852c0 -49.333 1.33301 -89.666 4 -120.999s10.167 -68.5 22.5 -111.5s30.166 -76.667 53.499 -101s57.166 -45.5 101.499 -63.5s98.666 -27 162.999 -27s118.666 9 162.999 27s78 39.167 101 63.5s40.667 58 53 101
s19.833 80.333 22.5 112s4 71.834 4 120.501v852h256v-936c0 -182.667 -53.5 -321.834 -160.5 -417.501s-253.333 -143.5 -439 -143.5s-332.167 47.833 -439.5 143.5s-161 234.834 -161 417.501zM408.004 1608l219 293h227l221 -293h-190l-146 184l-143 -184h-188z" />
    <glyph glyph-name="Udieresis" unicode="&#xdc;" horiz-adv-x="1478" 
d="M139 526l0.00390625 935.998h256v-852c0 -49.333 1.33301 -89.666 4 -120.999s10.167 -68.5 22.5 -111.5s30.166 -76.667 53.499 -101s57.166 -45.5 101.499 -63.5s98.666 -27 162.999 -27s118.666 9 162.999 27s78 39.167 101 63.5s40.667 58 53 101
s19.833 80.333 22.5 112s4 71.834 4 120.501v852h256v-936c0 -182.667 -53.5 -321.834 -160.5 -417.501s-253.333 -143.5 -439 -143.5s-332.167 47.833 -439.5 143.5s-161 234.834 -161 417.501zM449.004 1630v221h233v-221h-233zM801.004 1630v221h233v-221h-233z" />
    <glyph glyph-name="Yacute" unicode="&#xdd;" horiz-adv-x="1327" 
d="M-12 1462h297l387 -655l381 655h286l-546 -889v-573h-256v573zM510 1577l184 293h277l-291 -293h-170z" />
    <glyph glyph-name="Thorn" unicode="&#xde;" horiz-adv-x="1366" 
d="M156 0v1462h256v-221h389c98 0 181.833 -14.333 251.5 -43s121.167 -67.5 154.5 -116.5s56.833 -97.167 70.5 -144.5s20.5 -96.833 20.5 -148.5s-6.83301 -101.167 -20.5 -148.5s-37.167 -94.833 -70.5 -142.5s-84.833 -85.834 -154.5 -114.501s-153.5 -43 -251.5 -43
h-389v-340h-256zM412 549.001l374 0.000976562c68 0 127.667 19.167 179 57.5s77 99.833 77 184.5c0 161.333 -83.667 241.666 -251 240.999h-379v-483z" />
    <glyph glyph-name="germandbls" unicode="&#xdf;" horiz-adv-x="1175" 
d="M129 0l0.000976562 1071c0 131.333 41.667 235.166 125 311.499s191.333 114.5 324 114.5c117.333 0 219.333 -33.5 306 -100.5s130 -156.5 130 -268.5c0 -72.667 -17.833 -137.167 -53.5 -193.5s-87.5 -94.833 -155.5 -115.5v-4
c83.333 -9.33301 149.833 -48.166 199.5 -116.499s74.5 -146.166 74.5 -233.499c0 -143.333 -42.667 -261.5 -128 -354.5s-199 -139.5 -341 -139.5c-38 0 -76 2 -114 6v185c20.667 -4 47 -6 79 -6c57.333 0 105.166 9.5 143.499 28.5s66 45.833 83 80.5
s28.667 68.167 35 100.5s9.5 68.833 9.5 109.5c0 90 -37.667 157 -113 201c-52 34 -130.333 51 -235 51v154c94 0 161.333 17.667 202 53c53.333 39.333 80 96.666 80 171.999c0 138 -69 207 -207 207c-58.667 0 -108.5 -19.833 -149.5 -59.5s-61.5 -108.5 -61.5 -206.5
v-1047h-233z" />
    <glyph glyph-name="agrave" unicode="&#xe0;" 
d="M66 281c0 62.667 11.1699 115.499 33.5029 158.499s55.333 75.667 99 98s85.334 38.333 125.001 48s89.5 17.834 149.5 24.501c23.333 4 55.166 8.5 95.499 13.5s70.666 9.5 90.999 13.5s42.166 10.5 65.499 19.5s40.166 22 50.499 39s15.5 38.5 15.5 64.5
c0 95.333 -73.333 143 -220 143c-68 0 -122.5 -14 -163.5 -42s-64.167 -70 -69.5 -126h-234c8 125.333 56.833 215.333 146.5 270s201.5 82 335.5 82c116 0 215.667 -25.167 299 -75.5s125 -127.5 125 -231.5v-544c0 -28.667 4 -49.167 12 -61.5s22.333 -18.5 43 -18.5
c22 0 41 1.33301 57 4v-162c-50.667 -18 -99.667 -27 -147 -27c-104 0 -164 43 -180 129c-44 -42 -99.5 -74 -166.5 -96s-133.833 -33 -200.5 -33c-102.667 0 -188.667 27.167 -258 81.5s-104 130.5 -104 228.5zM264.003 1497h275l186 -293h-170zM299.003 290.999
c0 -46.667 22.832 -80.833 68.499 -102.5s94.5 -32.5 146.5 -32.5c62.667 0 122 16.667 178 50s84 83.333 84 150v174c-22 -13.333 -47.667 -23.833 -77 -31.5s-67.166 -14.167 -113.499 -19.5s-78.5 -9.33301 -96.5 -12c-58.667 -9.33301 -105 -27 -139 -53
s-51 -67 -51 -123z" />
    <glyph glyph-name="aacute" unicode="&#xe1;" 
d="M66 281c0 62.667 11.1699 115.499 33.5029 158.499s55.333 75.667 99 98s85.334 38.333 125.001 48s89.5 17.834 149.5 24.501c23.333 4 55.166 8.5 95.499 13.5s70.666 9.5 90.999 13.5s42.166 10.5 65.499 19.5s40.166 22 50.499 39s15.5 38.5 15.5 64.5
c0 95.333 -73.333 143 -220 143c-68 0 -122.5 -14 -163.5 -42s-64.167 -70 -69.5 -126h-234c8 125.333 56.833 215.333 146.5 270s201.5 82 335.5 82c116 0 215.667 -25.167 299 -75.5s125 -127.5 125 -231.5v-544c0 -28.667 4 -49.167 12 -61.5s22.333 -18.5 43 -18.5
c22 0 41 1.33301 57 4v-162c-50.667 -18 -99.667 -27 -147 -27c-104 0 -164 43 -180 129c-44 -42 -99.5 -74 -166.5 -96s-133.833 -33 -200.5 -33c-102.667 0 -188.667 27.167 -258 81.5s-104 130.5 -104 228.5zM299.003 290.999c0 -46.667 22.832 -80.833 68.499 -102.5
s94.5 -32.5 146.5 -32.5c62.667 0 122 16.667 178 50s84 83.333 84 150v174c-22 -13.333 -47.667 -23.833 -77 -31.5s-67.166 -14.167 -113.499 -19.5s-78.5 -9.33301 -96.5 -12c-58.667 -9.33301 -105 -27 -139 -53s-51 -67 -51 -123zM416.002 1204l184 293h277l-291 -293
h-170z" />
    <glyph glyph-name="acircumflex" unicode="&#xe2;" 
d="M66 281c0 62.667 11.1699 115.499 33.5029 158.499s55.333 75.667 99 98s85.334 38.333 125.001 48s89.5 17.834 149.5 24.501c23.333 4 55.166 8.5 95.499 13.5s70.666 9.5 90.999 13.5s42.166 10.5 65.499 19.5s40.166 22 50.499 39s15.5 38.5 15.5 64.5
c0 95.333 -73.333 143 -220 143c-68 0 -122.5 -14 -163.5 -42s-64.167 -70 -69.5 -126h-234c8 125.333 56.833 215.333 146.5 270s201.5 82 335.5 82c116 0 215.667 -25.167 299 -75.5s125 -127.5 125 -231.5v-544c0 -28.667 4 -49.167 12 -61.5s22.333 -18.5 43 -18.5
c22 0 41 1.33301 57 4v-162c-50.667 -18 -99.667 -27 -147 -27c-104 0 -164 43 -180 129c-44 -42 -99.5 -74 -166.5 -96s-133.833 -33 -200.5 -33c-102.667 0 -188.667 27.167 -258 81.5s-104 130.5 -104 228.5zM238.003 1204l219 293h227l221 -293h-190l-146 185l-143 -185
h-188zM299.003 290.999c0 -46.667 22.832 -80.833 68.499 -102.5s94.5 -32.5 146.5 -32.5c62.667 0 122 16.667 178 50s84 83.333 84 150v174c-22 -13.333 -47.667 -23.833 -77 -31.5s-67.166 -14.167 -113.499 -19.5s-78.5 -9.33301 -96.5 -12
c-58.667 -9.33301 -105 -27 -139 -53s-51 -67 -51 -123z" />
    <glyph glyph-name="atilde" unicode="&#xe3;" 
d="M66 281c0 62.667 11.1699 115.499 33.5029 158.499s55.333 75.667 99 98s85.334 38.333 125.001 48s89.5 17.834 149.5 24.501c23.333 4 55.166 8.5 95.499 13.5s70.666 9.5 90.999 13.5s42.166 10.5 65.499 19.5s40.166 22 50.499 39s15.5 38.5 15.5 64.5
c0 95.333 -73.333 143 -220 143c-68 0 -122.5 -14 -163.5 -42s-64.167 -70 -69.5 -126h-234c8 125.333 56.833 215.333 146.5 270s201.5 82 335.5 82c116 0 215.667 -25.167 299 -75.5s125 -127.5 125 -231.5v-544c0 -28.667 4 -49.167 12 -61.5s22.333 -18.5 43 -18.5
c22 0 41 1.33301 57 4v-162c-50.667 -18 -99.667 -27 -147 -27c-104 0 -164 43 -180 129c-44 -42 -99.5 -74 -166.5 -96s-133.833 -33 -200.5 -33c-102.667 0 -188.667 27.167 -258 81.5s-104 130.5 -104 228.5zM209.003 1219c9.33301 60 32.834 113.5 70.501 160.5
s85.167 70.5 142.5 70.5c50.667 0 106 -13 166 -39c66.667 -26 109 -39 127 -39c52 0 86 30 102 90h115c-10.667 -74 -33.334 -129.333 -68.001 -166c-38 -46.667 -91 -69.667 -159 -69c-35.333 0 -86 13 -152 39c-70.667 24.667 -117.667 37 -141 37s-43.5 -9 -60.5 -27
s-25.5 -37 -25.5 -57h-117zM299.004 290.999c0 -46.667 22.832 -80.833 68.499 -102.5s94.5 -32.5 146.5 -32.5c62.667 0 122 16.667 178 50s84 83.333 84 150v174c-22 -13.333 -47.667 -23.833 -77 -31.5s-67.166 -14.167 -113.499 -19.5s-78.5 -9.33301 -96.5 -12
c-58.667 -9.33301 -105 -27 -139 -53s-51 -67 -51 -123z" />
    <glyph glyph-name="adieresis" unicode="&#xe4;" 
d="M66 281c0 62.667 11.1699 115.499 33.5029 158.499s55.333 75.667 99 98s85.334 38.333 125.001 48s89.5 17.834 149.5 24.501c23.333 4 55.166 8.5 95.499 13.5s70.666 9.5 90.999 13.5s42.166 10.5 65.499 19.5s40.166 22 50.499 39s15.5 38.5 15.5 64.5
c0 95.333 -73.333 143 -220 143c-68 0 -122.5 -14 -163.5 -42s-64.167 -70 -69.5 -126h-234c8 125.333 56.833 215.333 146.5 270s201.5 82 335.5 82c116 0 215.667 -25.167 299 -75.5s125 -127.5 125 -231.5v-544c0 -28.667 4 -49.167 12 -61.5s22.333 -18.5 43 -18.5
c22 0 41 1.33301 57 4v-162c-50.667 -18 -99.667 -27 -147 -27c-104 0 -164 43 -180 129c-44 -42 -99.5 -74 -166.5 -96s-133.833 -33 -200.5 -33c-102.667 0 -188.667 27.167 -258 81.5s-104 130.5 -104 228.5zM279.003 1227v221h233v-221h-233zM299.003 290.999
c0 -46.667 22.832 -80.833 68.499 -102.5s94.5 -32.5 146.5 -32.5c62.667 0 122 16.667 178 50s84 83.333 84 150v174c-22 -13.333 -47.667 -23.833 -77 -31.5s-67.166 -14.167 -113.499 -19.5s-78.5 -9.33301 -96.5 -12c-58.667 -9.33301 -105 -27 -139 -53
s-51 -67 -51 -123zM631.002 1227v221h233v-221h-233z" />
    <glyph glyph-name="aring" unicode="&#xe5;" 
d="M66 281c0 62.667 11.1699 115.499 33.5029 158.499s55.333 75.667 99 98s85.334 38.333 125.001 48s89.5 17.834 149.5 24.501c23.333 4 55.166 8.5 95.499 13.5s70.666 9.5 90.999 13.5s42.166 10.5 65.499 19.5s40.166 22 50.499 39s15.5 38.5 15.5 64.5
c0 95.333 -73.333 143 -220 143c-68 0 -122.5 -14 -163.5 -42s-64.167 -70 -69.5 -126h-234c8 125.333 56.833 215.333 146.5 270s201.5 82 335.5 82c116 0 215.667 -25.167 299 -75.5s125 -127.5 125 -231.5v-544c0 -28.667 4 -49.167 12 -61.5s22.333 -18.5 43 -18.5
c22 0 41 1.33301 57 4v-162c-50.667 -18 -99.667 -27 -147 -27c-104 0 -164 43 -180 129c-44 -42 -99.5 -74 -166.5 -96s-133.833 -33 -200.5 -33c-102.667 0 -188.667 27.167 -258 81.5s-104 130.5 -104 228.5zM299.003 290.999c0 -46.667 22.832 -80.833 68.499 -102.5
s94.5 -32.5 146.5 -32.5c62.667 0 122 16.667 178 50s84 83.333 84 150v174c-22 -13.333 -47.667 -23.833 -77 -31.5s-67.166 -14.167 -113.499 -19.5s-78.5 -9.33301 -96.5 -12c-58.667 -9.33301 -105 -27 -139 -53s-51 -67 -51 -123zM360.002 1335
c0 57.333 21.167 106.833 63.5 148.5s91.5 62.5 147.5 62.5c57.333 0 106.833 -20.833 148.5 -62.5s62.5 -91.167 62.5 -148.5c0 -56 -20.833 -105.167 -62.5 -147.5s-91.167 -63.5 -148.5 -63.5c-56 0 -105.167 21.167 -147.5 63.5s-63.5 91.5 -63.5 147.5zM446.002 1335
c0 -32.667 12.667 -61.667 38 -87s54.333 -38 87 -38c34 0 63.333 12.667 88 38s37 54.333 37 87c0 34 -12.167 63.333 -36.5 88s-53.833 37 -88.5 37c-32.667 0 -61.667 -12.333 -87 -37s-38 -54 -38 -88z" />
    <glyph glyph-name="ae" unicode="&#xe6;" horiz-adv-x="1820" 
d="M66 281c0 62.667 11.1689 115.499 33.502 158.499s55.333 75.667 99 98s85.334 38.333 125.001 48s89.5 17.834 149.5 24.501c22 4 48.667 8.16699 80 12.5l74.5 10.5c18.333 2.66699 38.5 6.66699 60.5 12s38.5 12.5 49.5 21.5s20.5 21.333 28.5 37s12 34.5 12 56.5
c0 95.333 -69 143 -207 143c-68 0 -122.5 -14 -163.5 -42s-64.167 -70 -69.5 -126h-234c8 125.333 56.5 215.333 145.5 270s199.167 82 330.5 82c174.667 0 294 -47.667 358 -143c72.667 95.333 184.667 143 336 143c173.333 0 301.666 -57 384.999 -171
s118.666 -263 105.999 -447h-768c-1.33301 -87.333 21.667 -161.333 69 -222s116.666 -91 207.999 -91c124 0 207.333 59.333 250 178h233c-30 -112 -88 -200.5 -174 -265.5s-187.667 -97.5 -305 -97.5c-186 0 -315.667 65 -389 195c-87.333 -130 -234 -195 -440 -195
c-110.667 0 -202.167 26.667 -274.5 80s-108.5 130 -108.5 230zM299.002 290.999c0 -49.333 20.834 -84.167 62.501 -104.5s91.834 -30.5 150.501 -30.5c69.333 0 130.666 19 183.999 57s80 90 80 156v157c-15.333 -13.333 -36.833 -23.5 -64.5 -30.5
s-65.834 -12.5 -114.501 -16.5s-83.667 -8 -105 -12c-60 -9.33301 -107.167 -27 -141.5 -53s-51.5 -67 -51.5 -123zM997.003 622.998h535.002c1.33301 84.667 -21.834 152.5 -69.501 203.5s-113.834 76.5 -198.501 76.5c-79.333 0 -142.333 -26.5 -189 -79.5
s-72.667 -119.833 -78 -200.5z" />
    <glyph glyph-name="ccedilla" unicode="&#xe7;" 
d="M72 518c0 168 45 304.832 135 410.499s219 158.5 387 158.5c130 0 239.333 -32.667 328 -98s138.334 -160 149.001 -284h-233c-9.33301 62.667 -35.666 111.334 -78.999 146.001s-97.666 52 -162.999 52c-34 0 -66.333 -5.5 -97 -16.5s-61.5 -29.333 -92.5 -55
s-55.667 -65.167 -74 -118.5s-27.5 -118.333 -27.5 -195c0 -100 23.167 -185.333 69.5 -256s116.833 -106 211.5 -106c68 0 124.167 21.5 168.5 64.5s72.166 101.833 83.499 176.5h233c-20.667 -130 -68.834 -231.333 -144.501 -304s-174.834 -112 -297.501 -118l-72 -94v-4
c10.667 4 33.334 6 68.001 6c45.333 0 85.666 -13.333 120.999 -40s53 -63.667 53 -111c0 -64 -24.333 -110.833 -73 -140.5s-107 -44.5 -175 -44.5c-91.333 0 -161.666 14.333 -210.999 43l37 82c65.333 -22 109.666 -32.667 132.999 -32c83.333 0 125 28 125 84
c0 24.667 -9.5 43.667 -28.5 57s-40.833 20 -65.5 20c-30 0 -56.667 -6.66699 -80 -20l-45 39l116 155c-146 10.667 -259.167 66 -339.5 166s-120.5 225.667 -120.5 377z" />
    <glyph glyph-name="egrave" unicode="&#xe8;" 
d="M72 528c0 155.333 47 287.333 141 396s217.667 163 371 163c162.667 0 291.667 -62 387 -186s132.666 -268 111.999 -432h-778c0 -88.667 24.333 -163 73 -223s119.334 -90 212.001 -90c131.333 0 217.333 58.667 258 176h221c-24.667 -113.333 -81 -201.833 -169 -265.5
s-191.333 -95.5 -310 -95.5c-162.667 0 -289.667 51.167 -381 153.5s-137 236.833 -137 403.5zM264 1497h275l186 -293h-170zM305 623h545c-4 78 -30.333 144.167 -79 198.5s-111 81.5 -187 81.5c-79.333 0 -145 -26.5 -197 -79.5s-79.333 -119.833 -82 -200.5z" />
    <glyph glyph-name="eacute" unicode="&#xe9;" 
d="M72 528c0 155.333 47 287.333 141 396s217.667 163 371 163c162.667 0 291.667 -62 387 -186s132.666 -268 111.999 -432h-778c0 -88.667 24.333 -163 73 -223s119.334 -90 212.001 -90c131.333 0 217.333 58.667 258 176h221c-24.667 -113.333 -81 -201.833 -169 -265.5
s-191.333 -95.5 -310 -95.5c-162.667 0 -289.667 51.167 -381 153.5s-137 236.833 -137 403.5zM305 623h545c-4 78 -30.333 144.167 -79 198.5s-111 81.5 -187 81.5c-79.333 0 -145 -26.5 -197 -79.5s-79.333 -119.833 -82 -200.5zM416 1204l184 293h277l-291 -293h-170z
" />
    <glyph glyph-name="ecircumflex" unicode="&#xea;" 
d="M72 528c0 155.333 47 287.333 141 396s217.667 163 371 163c162.667 0 291.667 -62 387 -186s132.666 -268 111.999 -432h-778c0 -88.667 24.333 -163 73 -223s119.334 -90 212.001 -90c131.333 0 217.333 58.667 258 176h221c-24.667 -113.333 -81 -201.833 -169 -265.5
s-191.333 -95.5 -310 -95.5c-162.667 0 -289.667 51.167 -381 153.5s-137 236.833 -137 403.5zM238 1204l219 293h227l221 -293h-190l-146 185l-143 -185h-188zM305 623h545c-4 78 -30.333 144.167 -79 198.5s-111 81.5 -187 81.5c-79.333 0 -145 -26.5 -197 -79.5
s-79.333 -119.833 -82 -200.5z" />
    <glyph glyph-name="edieresis" unicode="&#xeb;" 
d="M72 528c0 155.333 47 287.333 141 396s217.667 163 371 163c162.667 0 291.667 -62 387 -186s132.666 -268 111.999 -432h-778c0 -88.667 24.333 -163 73 -223s119.334 -90 212.001 -90c131.333 0 217.333 58.667 258 176h221c-24.667 -113.333 -81 -201.833 -169 -265.5
s-191.333 -95.5 -310 -95.5c-162.667 0 -289.667 51.167 -381 153.5s-137 236.833 -137 403.5zM279 1227v221h233v-221h-233zM305 623h545c-4 78 -30.333 144.167 -79 198.5s-111 81.5 -187 81.5c-79.333 0 -145 -26.5 -197 -79.5s-79.333 -119.833 -82 -200.5zM631 1227
v221h233v-221h-233z" />
    <glyph glyph-name="igrave" unicode="&#xec;" horiz-adv-x="493" 
d="M-59 1497h274l186 -293h-170zM129 0v1059h233v-1059h-233z" />
    <glyph glyph-name="iacute" unicode="&#xed;" horiz-adv-x="493" 
d="M92 1204l184 293h277l-291 -293h-170zM129 0v1059h233v-1059h-233z" />
    <glyph glyph-name="icircumflex" unicode="&#xee;" horiz-adv-x="493" 
d="M-86 1204l219 293h227l222 -293h-191l-145 185l-144 -185h-188zM129 0v1059h233v-1059h-233z" />
    <glyph glyph-name="idieresis" unicode="&#xef;" horiz-adv-x="493" 
d="M-45 1227v221h233v-221h-233zM129 0v1059h233v-1059h-233zM307 1227v221h234v-221h-234z" />
    <glyph glyph-name="eth" unicode="&#xf0;" horiz-adv-x="1214" 
d="M86 516c0 140.667 42 262.5 126 365.5s194.333 154.5 331 154.5c110.667 0 208.334 -30 293.001 -90h4c-39.333 87.333 -113.333 176.666 -222 267.999l-221 -106l-102 100l197 95c-84.667 36.667 -143 59.667 -175 69l156 125c75.333 -24.667 146.333 -58.667 213 -102
l215 102l100 -100l-192 -92c102.667 -83.333 181.167 -183.166 235.5 -299.499s81.5 -240.5 81.5 -372.5c0 -196.667 -44.667 -356.167 -134 -478.5s-228.333 -183.5 -417 -183.5c-152.667 0 -272.334 50.167 -359.001 150.5s-130 231.833 -130 394.5zM319 502
c0 -100 23 -182.667 69 -248s113.333 -98 202 -98c90 0 163 34.333 219 103s84 149.667 84 243c0 96.667 -23.5 179.167 -70.5 247.5s-117.167 102.5 -210.5 102.5c-102.667 0 -177.167 -32.333 -223.5 -97s-69.5 -149 -69.5 -253z" />
    <glyph glyph-name="ntilde" unicode="&#xf1;" horiz-adv-x="1175" 
d="M123 0l0.000976562 1059h221v-156l4 -4c35.333 58.667 81.666 104.667 138.999 138s121 50 191 50c117.333 0 209.166 -30.667 275.499 -92s99.5 -150.666 99.5 -267.999v-727h-234v666c-1.33301 82 -18.666 142 -51.999 180s-85 57 -155 57
c-76.667 0 -138.5 -26.667 -185.5 -80s-70.5 -119.333 -70.5 -198v-625h-233zM227.001 1219c9.33301 60 32.834 113.5 70.501 160.5s85.167 70.5 142.5 70.5c50.667 0 106 -13 166 -39c66.667 -26 109 -39 127 -39c52 0 86.333 30 103 90h114
c-10.667 -74 -33 -129.333 -67 -166c-38 -46.667 -91.333 -69.667 -160 -69c-36.667 0 -87.334 13 -152.001 39c-70.667 24.667 -117.667 37 -141 37s-43.5 -9 -60.5 -27s-25.5 -37 -25.5 -57h-117z" />
    <glyph glyph-name="ograve" unicode="&#xf2;" horiz-adv-x="1214" 
d="M74 530c0 165.333 47.333 299.5 142 402.5s225.334 154.5 392.001 154.5s297.5 -51.5 392.5 -154.5s142.5 -237.167 142.5 -402.5c0 -166.667 -47.5 -301.5 -142.5 -404.5s-225.833 -154.5 -392.5 -154.5s-297.334 51.5 -392.001 154.5s-142 237.833 -142 404.5z
M301 1497h274l187 -293h-170zM307 530c0 -102.667 25.667 -190.667 77 -264s126.166 -110 224.499 -110s173 36.833 224 110.5s76.5 161.5 76.5 263.5c0 101.333 -25.5 188.833 -76.5 262.5s-125.667 110.5 -224 110.5s-173.166 -36.833 -224.499 -110.5
s-77 -161.167 -77 -262.5z" />
    <glyph glyph-name="oacute" unicode="&#xf3;" horiz-adv-x="1214" 
d="M74 530c0 165.333 47.333 299.5 142 402.5s225.334 154.5 392.001 154.5s297.5 -51.5 392.5 -154.5s142.5 -237.167 142.5 -402.5c0 -166.667 -47.5 -301.5 -142.5 -404.5s-225.833 -154.5 -392.5 -154.5s-297.334 51.5 -392.001 154.5s-142 237.833 -142 404.5zM307 530
c0 -102.667 25.667 -190.667 77 -264s126.166 -110 224.499 -110s173 36.833 224 110.5s76.5 161.5 76.5 263.5c0 101.333 -25.5 188.833 -76.5 262.5s-125.667 110.5 -224 110.5s-173.166 -36.833 -224.499 -110.5s-77 -161.167 -77 -262.5zM453 1204l184 293h276
l-290 -293h-170z" />
    <glyph glyph-name="ocircumflex" unicode="&#xf4;" horiz-adv-x="1214" 
d="M74 530c0 165.333 47.333 299.5 142 402.5s225.334 154.5 392.001 154.5s297.5 -51.5 392.5 -154.5s142.5 -237.167 142.5 -402.5c0 -166.667 -47.5 -301.5 -142.5 -404.5s-225.833 -154.5 -392.5 -154.5s-297.334 51.5 -392.001 154.5s-142 237.833 -142 404.5z
M274 1204l220 293h227l221 -293h-190l-146 185l-143 -185h-189zM307 530c0 -102.667 25.667 -190.667 77 -264s126.166 -110 224.499 -110s173 36.833 224 110.5s76.5 161.5 76.5 263.5c0 101.333 -25.5 188.833 -76.5 262.5s-125.667 110.5 -224 110.5
s-173.166 -36.833 -224.499 -110.5s-77 -161.167 -77 -262.5z" />
    <glyph glyph-name="otilde" unicode="&#xf5;" horiz-adv-x="1214" 
d="M74 530c0 165.333 47.333 299.5 142 402.5s225.334 154.5 392.001 154.5s297.5 -51.5 392.5 -154.5s142.5 -237.167 142.5 -402.5c0 -166.667 -47.5 -301.5 -142.5 -404.5s-225.833 -154.5 -392.5 -154.5s-297.334 51.5 -392.001 154.5s-142 237.833 -142 404.5z
M246 1219c9.33301 60 32.832 113.5 70.499 160.5s85.167 70.5 142.5 70.5c50.667 0 106 -13 166 -39c66.667 -26 109 -39 127 -39c52 0 86 30 102 90h115c-10.667 -74 -33.334 -129.333 -68.001 -166c-38 -46.667 -91.333 -69.667 -160 -69
c-35.333 0 -85.666 13 -150.999 39c-70.667 24.667 -117.667 37 -141 37s-43.666 -9 -60.999 -27s-26 -37 -26 -57h-116zM306.999 530c0 -102.667 25.667 -190.667 77 -264s126.166 -110 224.499 -110s173 36.833 224 110.5s76.5 161.5 76.5 263.5
c0 101.333 -25.5 188.833 -76.5 262.5s-125.667 110.5 -224 110.5s-173.166 -36.833 -224.499 -110.5s-77 -161.167 -77 -262.5z" />
    <glyph glyph-name="odieresis" unicode="&#xf6;" horiz-adv-x="1214" 
d="M74 530c0 165.333 47.333 299.5 142 402.5s225.334 154.5 392.001 154.5s297.5 -51.5 392.5 -154.5s142.5 -237.167 142.5 -402.5c0 -166.667 -47.5 -301.5 -142.5 -404.5s-225.833 -154.5 -392.5 -154.5s-297.334 51.5 -392.001 154.5s-142 237.833 -142 404.5zM307 530
c0 -102.667 25.667 -190.667 77 -264s126.166 -110 224.499 -110s173 36.833 224 110.5s76.5 161.5 76.5 263.5c0 101.333 -25.5 188.833 -76.5 262.5s-125.667 110.5 -224 110.5s-173.166 -36.833 -224.499 -110.5s-77 -161.167 -77 -262.5zM315 1227v221h234v-221h-234z
M668 1227v221h233v-221h-233z" />
    <glyph glyph-name="divide" unicode="&#xf7;" horiz-adv-x="1228" 
d="M98 414v209h1032v-209h-1032zM467 96c0 40.667 14.667 75.502 44 104.502s63.833 43.5 103.5 43.5s74.167 -14.667 103.5 -44s44 -64 44 -104c0 -36.667 -14.667 -70.334 -44 -101.001s-63.333 -46 -102 -46c-39.333 0 -74 14.667 -104 44s-45 63.666 -45 102.999z
M467 940.002c0 40.667 14.667 75.334 44 104.001s63.833 43 103.5 43s74.167 -14.667 103.5 -44s44 -63.666 44 -102.999c0 -36.667 -14.667 -70.334 -44 -101.001s-63.333 -46 -102 -46c-39.333 0 -74 14.667 -104 44s-45 63.666 -45 102.999z" />
    <glyph glyph-name="oslash" unicode="&#xf8;" horiz-adv-x="1214" 
d="M66 0l132.998 147.001c-83.333 100 -125 227.667 -125 383c0 165.333 47.333 299.5 142 402.5s225.334 154.5 392.001 154.5c142 0 258 -37.333 348 -112l129 141l66 -57l-133 -146c83.333 -102.667 125 -230.334 125 -383.001c0 -166.667 -47.5 -301.5 -142.5 -404.5
s-225.833 -154.5 -392.5 -154.5c-139.333 0 -254.666 38.333 -345.999 115l-131 -143zM306.998 530.001c0 -80.667 15.667 -151.667 47 -213l457 500c-53.333 57.333 -121 86 -203 86c-98 0 -172.667 -36.833 -224 -110.5s-77 -161.167 -77 -262.5zM405.998 242.001
c53.333 -57.333 120.667 -85.999 202 -85.999c98 0 172.667 36.833 224 110.5s77 161.5 77 263.5c0 79.333 -15.667 149.666 -47 210.999z" />
    <glyph glyph-name="ugrave" unicode="&#xf9;" horiz-adv-x="1175" 
d="M123 387l0.00195312 672h233v-649c0 -169.333 67.667 -254 203 -254c173.333 0 260 96 260 288v615h234v-1059h-230v147h-4c-28.667 -52 -71.334 -94.333 -128.001 -127s-114.334 -49 -173.001 -49c-136.667 0 -236.667 34.167 -300 102.5s-95 172.833 -95 313.5z
M283.002 1497h274l186 -293h-170z" />
    <glyph glyph-name="uacute" unicode="&#xfa;" horiz-adv-x="1175" 
d="M123 387l0.00195312 672h233v-649c0 -169.333 67.667 -254 203 -254c173.333 0 260 96 260 288v615h234v-1059h-230v147h-4c-28.667 -52 -71.334 -94.333 -128.001 -127s-114.334 -49 -173.001 -49c-136.667 0 -236.667 34.167 -300 102.5s-95 172.833 -95 313.5z
M434.002 1204l184 293h277l-291 -293h-170z" />
    <glyph glyph-name="ucircumflex" unicode="&#xfb;" horiz-adv-x="1175" 
d="M123 387l0.00195312 672h233v-649c0 -169.333 67.667 -254 203 -254c173.333 0 260 96 260 288v615h234v-1059h-230v147h-4c-28.667 -52 -71.334 -94.333 -128.001 -127s-114.334 -49 -173.001 -49c-136.667 0 -236.667 34.167 -300 102.5s-95 172.833 -95 313.5z
M256.002 1204l219 293h227l222 -293h-191l-145 185l-144 -185h-188z" />
    <glyph glyph-name="udieresis" unicode="&#xfc;" horiz-adv-x="1175" 
d="M123 387l0.00195312 672h233v-649c0 -169.333 67.667 -254 203 -254c173.333 0 260 96 260 288v615h234v-1059h-230v147h-4c-28.667 -52 -71.334 -94.333 -128.001 -127s-114.334 -49 -173.001 -49c-136.667 0 -236.667 34.167 -300 102.5s-95 172.833 -95 313.5z
M297.002 1227v221h233v-221h-233zM649.002 1227v221h234v-221h-234z" />
    <glyph glyph-name="yacute" unicode="&#xfd;" horiz-adv-x="1062" 
d="M6 1059h255.998l277 -791h4l268 791h244l-412 -1116c-49.333 -122.667 -87.666 -202.667 -114.999 -240c-60 -82 -146.667 -123 -260 -123c-54.667 0 -108.667 4 -162 12v197c57.333 -9.33301 94.333 -14 111 -14c49.333 0 84.833 11.5 106.5 34.5
s40.834 60.5 57.501 112.5l27 82zM376.998 1204l184 293h277l-291 -293h-170z" />
    <glyph glyph-name="thorn" unicode="&#xfe;" horiz-adv-x="1251" 
d="M129 -391l0.000976562 1853h233v-540h5c31.333 50.667 76.333 90.834 135 120.501s118.667 44.5 180 44.5c160 0 282.667 -52.833 368 -158.5s128 -240.5 128 -404.5c0 -154 -39.333 -284.667 -118 -392s-191.667 -161 -339 -161c-72.667 0 -141.334 13.667 -206.001 41
s-114 69 -148 125h-5v-528h-233zM354.001 527.999c0 -109.333 26.667 -198.667 80 -268s125.666 -104 216.999 -104c98 0 171.333 36.167 220 108.5s73 160.166 73 263.499c0 102.667 -26 190.834 -78 264.501s-123.667 110.5 -215 110.5
c-95.333 0 -168.666 -33.5 -219.999 -100.5s-77 -158.5 -77 -274.5z" />
    <glyph glyph-name="ydieresis" unicode="&#xff;" horiz-adv-x="1062" 
d="M6 1059h255.998l277 -791h4l268 791h244l-412 -1116c-49.333 -122.667 -87.666 -202.667 -114.999 -240c-60 -82 -146.667 -123 -260 -123c-54.667 0 -108.667 4 -162 12v197c57.333 -9.33301 94.333 -14 111 -14c49.333 0 84.833 11.5 106.5 34.5
s40.834 60.5 57.501 112.5l27 82zM239.998 1227v221h233v-221h-233zM591.998 1227v221h233v-221h-233z" />
    <glyph glyph-name="OE" unicode="&#x152;" horiz-adv-x="2238" 
d="M84 725c0 139.333 26.334 266.668 79.001 382.001s132.167 209.166 238.5 281.499s229.833 108.5 370.5 108.5c157.333 0 280.333 -50.333 369 -151v116h999v-221h-766v-383h703v-209h-703v-428h780v-221h-1013v131c-94 -110.667 -222.333 -166 -385 -166
c-139.333 0 -260.833 35.5 -364.5 106.5s-180.834 163.167 -231.501 276.5s-76 239 -76 377zM340.001 729.002c0 -95.333 14.667 -183.667 44 -265s78.166 -150 146.499 -206s151.5 -84 249.5 -84c104 0 188.333 29 253 87s97 120.667 97 188v544
c0 82 -30.333 151.667 -91 209s-147 86 -259 86c-98 0 -181.167 -28.333 -249.5 -85s-117.166 -126 -146.499 -208s-44 -170.667 -44 -266z" />
    <glyph glyph-name="oe" unicode="&#x153;" horiz-adv-x="1857" 
d="M72 532c0 158.667 45.002 290.837 135.002 396.504s213.667 158.5 371 158.5c180 0 303.333 -59.333 370 -178c75.333 118.667 199 178 371 178c88.667 0 165.834 -16.333 231.501 -49s116.5 -78.334 152.5 -137.001s62.5 -123.834 79.5 -195.501
s25.5 -150.5 25.5 -236.5h-774c1.33301 -92.667 25.333 -168 72 -226s115 -87 205 -87c61.333 0 115.833 15.667 163.5 47s77.167 75.666 88.5 132.999h233c-28.667 -117.333 -85.334 -207.5 -170.001 -270.5s-188.334 -94.5 -311.001 -94.5c-186 0 -312.333 65 -379 195
c-66.667 -130 -192.334 -195 -377.001 -195c-157.333 0 -277.833 53.167 -361.5 159.5s-125.5 240.166 -125.5 401.499zM305.002 537.003c0 -50.667 4.16699 -96.834 12.5 -138.501s22 -81.667 41 -120s47 -68.333 84 -90s81.333 -32.5 133 -32.5s96 10.833 133 32.5
s65 51.667 84 90s32.667 78.333 41 120s12.5 87.834 12.5 138.501c0 98 -22.167 183.5 -66.5 256.5s-112.333 109.5 -204 109.5s-159.667 -36.5 -204 -109.5s-66.5 -158.5 -66.5 -256.5zM1034 623.003h541.001c-5.33301 88.667 -30.833 157.5 -76.5 206.5
s-111.834 73.5 -198.501 73.5c-76.667 0 -139.5 -27.167 -188.5 -81.5s-74.833 -120.5 -77.5 -198.5z" />
    <glyph glyph-name="Ydieresis" unicode="&#x178;" horiz-adv-x="1327" 
d="M-12 1462h297l387 -655l381 655h286l-546 -889v-573h-256v573zM373 1630v221h233v-221h-233zM725 1630v221h233v-221h-233z" />
    <glyph glyph-name="circumflex" unicode="&#x2c6;" horiz-adv-x="493" 
d="M-86 1204l219 293h227l222 -293h-191l-145 185l-144 -185h-188z" />
    <glyph glyph-name="tilde" unicode="&#x2dc;" horiz-adv-x="493" 
d="M-115 1219c9.33301 60 32.833 113.5 70.5 160.5s85.167 70.5 142.5 70.5c50.667 0 106 -13 166 -39c66.667 -26 109 -39 127 -39c52 0 86.333 30 103 90h114c-10.667 -74 -33 -129.333 -67 -166c-38 -46.667 -91.333 -69.667 -160 -69c-35.333 0 -86 13 -152 39
c-70.667 24.667 -117.667 37 -141 37s-43.5 -9 -60.5 -27s-25.5 -37 -25.5 -57h-117z" />
    <glyph glyph-name="endash" unicode="&#x2013;" horiz-adv-x="1024" 
d="M0 446v222h1024v-222h-1024z" />
    <glyph glyph-name="emdash" unicode="&#x2014;" horiz-adv-x="2048" 
d="M266 446v222h1516v-222h-1516z" />
    <glyph glyph-name="quoteleft" unicode="&#x2018;" horiz-adv-x="569" 
d="M158 885v276.001c0 74 23.833 137.333 71.5 190s109.167 89.667 184.5 111v-119c-83.333 -28.667 -125 -89.334 -125 -182.001h125v-276h-256z" />
    <glyph glyph-name="quoteright" unicode="&#x2019;" horiz-adv-x="569" 
d="M158 885v118.999c83.333 10.667 125 71.334 125 182.001h-125v276h256v-276c0 -79.333 -23.167 -147 -69.5 -203s-108.5 -88.667 -186.5 -98z" />
    <glyph glyph-name="quotesinglbase" unicode="&#x201a;" horiz-adv-x="569" 
d="M158 0v275.999h256v-276c0 -74 -24 -137.167 -72 -189.5s-109.333 -89.5 -184 -111.5v119c83.333 28.667 125 89.334 125 182.001h-125z" />
    <glyph glyph-name="quotedblleft" unicode="&#x201c;" horiz-adv-x="909" 
d="M123 885v276.001c0 74 23.833 137.333 71.5 190s109.167 89.667 184.5 111v-119c-83.333 -28.667 -125 -89.334 -125 -182.001h125v-276h-256zM530 885.001l-0.000976562 276.001c0 74 24 137.333 72 190s109.333 89.667 184 111v-119
c-83.333 -28.667 -124.666 -89.334 -123.999 -182.001h124v-276h-256z" />
    <glyph glyph-name="quotedblright" unicode="&#x201d;" horiz-adv-x="909" 
d="M123 885v118.999c83.333 28.667 125 89.334 125 182.001h-125v276h256v-276c0 -74 -23.833 -137.167 -71.5 -189.5s-109.167 -89.5 -184.5 -111.5zM530 884.999v118.999c83.333 28.667 125 89.334 125 182.001h-125v276h256v-276c0 -74 -23.833 -137.167 -71.5 -189.5
s-109.167 -89.5 -184.5 -111.5z" />
    <glyph glyph-name="quotedblbase" unicode="&#x201e;" horiz-adv-x="909" 
d="M123 0v275.999h256v-276c0 -74 -23.833 -137.167 -71.5 -189.5s-109.167 -89.5 -184.5 -111.5v119c83.333 28.667 125 89.334 125 182.001h-125zM530 -0.000976562v275.999h256v-276c0 -74 -23.833 -137.167 -71.5 -189.5s-109.167 -89.5 -184.5 -111.5v119
c83.333 28.667 125 89.334 125 182.001h-125z" />
    <glyph glyph-name="bullet" unicode="&#x2022;" horiz-adv-x="1024" 
d="M147 731.5c0 101 35.5 187 106.5 258s157.167 106.5 258.5 106.5s187.833 -35.5 259.5 -106.5s107.5 -157 107.5 -258s-35.833 -187.333 -107.5 -259s-158.167 -107.5 -259.5 -107.5s-187.5 35.833 -258.5 107.5s-106.5 158 -106.5 259z" />
    <glyph glyph-name="ellipsis" unicode="&#x2026;" horiz-adv-x="2048" 
d="M199 0v276h284v-276h-284zM881 0v276h284v-276h-284zM1563 0v276h284v-276h-284z" />
    <glyph glyph-name="guilsinglleft" unicode="&#x2039;" horiz-adv-x="530" 
d="M102 442v230l318 252v-211l-195 -156l195 -156v-211z" />
    <glyph glyph-name="guilsinglright" unicode="&#x203a;" horiz-adv-x="530" 
d="M111 190v211l194 156l-194 156v211l317 -252v-230z" />
    <glyph glyph-name="Euro" unicode="&#x20ac;" 
d="M-31 500l61.999 133h71c-6.66699 54.667 -7.33398 105.667 -2.00098 153h-131l62 134h86c18 96.667 49.833 184.167 95.5 262.5s101.167 140.166 166.5 185.499c88.667 62.667 195.667 94 321 94c106.667 0 198.334 -16.333 275.001 -49c52 -24.667 99.667 -60 143 -106
l-92 -201c-34 58.667 -81.667 103 -143 133c-49.333 19.333 -104 29 -164 29c-95.333 0 -172 -24.667 -230 -74c-68 -57.333 -114.333 -148.666 -139 -273.999l594 4l-61 -133l-549 -5c-2.66699 -27.333 -2.66699 -78.333 0 -153h475l-61 -133h-392
c10.667 -109.333 55 -195.333 133 -258c60 -52 136.667 -77.333 230 -76c69.333 0 130 10.333 182 31c62.667 24.667 116 62.667 160 114v-231c-42 -32.667 -86.333 -56.667 -133 -72c-26 -8 -63 -16 -111 -24c-45.333 -8 -82.666 -12.333 -111.999 -13
c-134 0 -245.333 32.333 -334 97c-64 44 -118.333 104.5 -163 181.5s-73.667 160.5 -87 250.5h-152z" />
    <glyph glyph-name="trademark" unicode="&#x2122;" horiz-adv-x="2027" 
d="M121 1329v133h680v-133h-258v-711h-164v711h-258zM973 618v844h237l232 -598l229 598h236v-844h-154v660h-4l-252 -660h-115l-252 660h-4v-660h-153z" />
    <glyph glyph-name="uniE000" unicode="&#xe000;" horiz-adv-x="1060" 
d="M0 1060h1060v-1060h-1060v1060z" />
    <glyph glyph-name="uniFB01" unicode="&#xfb01;" 
d="M18 885v173.999h175v88c0 122.667 26.167 205.834 78.5 249.501s123.5 65.5 213.5 65.5c75.333 0 130 -4.66699 164 -14v-182c-31.333 8 -67.333 12 -108 12c-76.667 0 -115 -37 -115 -111v-108h199v-174h-199v-885h-233v885h-175zM774 -0.000976562v1059h234v-1059h-234
zM774 1241v221h234v-221h-234z" />
    <glyph glyph-name="uniFB02" unicode="&#xfb02;" 
d="M18 885v173.999h175v88c0 122.667 26.167 205.834 78.5 249.501s123.5 65.5 213.5 65.5c75.333 0 130 -4.66699 164 -14v-182c-31.333 8 -67.333 12 -108 12c-76.667 0 -115 -37 -115 -111v-108h199v-174h-199v-885h-233v885h-175zM774 -0.000976562v1462h234v-1462h-234
z" />
    <glyph glyph-name="uniFB03" unicode="&#xfb03;" horiz-adv-x="1783" 
d="M1419 0v1059h233v-1059h-233zM1419 1241v221h233v-221h-233zM663 885v173.999h175v88c0 122.667 26.167 205.834 78.5 249.501s123.5 65.5 213.5 65.5c75.333 0 130 -4.66699 164 -14v-182c-31.333 8 -67.333 12 -108 12c-76.667 0 -115 -37 -115 -111v-108h199v-174
h-199v-885h-233v885h-175zM18 884.999v173.999h175v88c0 122.667 26.167 205.834 78.5 249.501s123.5 65.5 213.5 65.5c75.333 0 130 -4.66699 164 -14v-182c-31.333 8 -67.333 12 -108 12c-76.667 0 -115 -37 -115 -111v-108h199v-174h-199v-885h-233v885h-175z" />
    <glyph glyph-name="uniFB04" unicode="&#xfb04;" horiz-adv-x="1783" 
d="M1419 0v1462h233v-1462h-233zM663 885v173.999h175v88c0 122.667 26.167 205.834 78.5 249.501s123.5 65.5 213.5 65.5c75.333 0 130 -4.66699 164 -14v-182c-31.333 8 -67.333 12 -108 12c-76.667 0 -115 -37 -115 -111v-108h199v-174h-199v-885h-233v885h-175z
M18 884.999v173.999h175v88c0 122.667 26.167 205.834 78.5 249.501s123.5 65.5 213.5 65.5c75.333 0 130 -4.66699 164 -14v-182c-31.333 8 -67.333 12 -108 12c-76.667 0 -115 -37 -115 -111v-108h199v-174h-199v-885h-233v885h-175z" />
    <glyph glyph-name=".null" horiz-adv-x="0" 
 />
    <glyph glyph-name="nonmarkingreturn" horiz-adv-x="682" 
 />
    </font>
</defs>
</svg>
